<svg width="145" height="959" viewBox="0 0 145 959" fill="none" xmlns="http://www.w3.org/2000/svg">
    <path d="M60.3811 1031.71C59.9209 1032.92 59.4476 1028.69 58.9918 1031.71C58.9918 1031.71 58.6845 1032.31 58.683 1031.71C58.2126 1028.69 57.9039 1028.69 57.1379 1031.11C56.5247 1032.92 55.9058 1032.32 55.5912 1029.9C55.1194 1026.28 54.6475 1022.66 53.8684 1019.64C53.5567 1018.43 53.3965 1016.02 53.2378 1014.2C52.9086 1005.75 52.7324 996.685 52.5561 987.623C52.3886 982.187 52.3741 976.145 52.2066 970.709C52.0347 963.459 51.0953 958.025 49.39 955.008C48.1492 952.595 47.0613 949.576 45.8205 947.163C45.0443 945.352 44.4239 944.146 43.6506 943.543C43.0316 942.941 42.2598 942.943 41.4865 942.34C39.4753 940.533 37.7772 940.537 36.8729 949.601C36.8743 950.205 36.4112 950.206 36.2583 950.811C34.7073 947.794 35.3102 941.751 34.6825 937.524C33.1345 935.715 31.4422 938.136 29.8985 938.139C29.5898 938.14 29.2839 939.349 28.9767 939.954C27.4461 945.395 25.598 947.212 23.4368 947.217C21.5844 947.221 19.8892 948.434 18.1985 951.459C16.1989 954.484 14.345 953.884 12.4838 950.264C11.8635 949.057 11.5503 947.246 11.543 944.225C11.5183 933.955 11.6478 923.684 11.623 913.414C11.6158 910.394 11.7614 906.769 10.9837 904.354C10.5162 902.543 10.5104 900.126 10.5045 897.71C10.7593 875.356 10.8583 852.399 11.1131 830.046C11.2193 810.11 11.4785 789.569 11.5847 769.632C11.691 749.696 11.7987 730.363 12.0593 710.426C12.0433 703.781 12.336 697.135 12.3199 690.49C12.5514 658.47 12.7828 626.451 12.7041 593.828C12.6632 576.913 12.3137 559.998 12.4272 543.082C12.3893 527.375 11.8897 512.273 11.8518 496.566C11.6202 464.547 11.39 433.133 11.1583 401.115C10.9325 371.513 10.3979 341.912 10.0177 312.311C9.81376 291.771 9.60983 271.231 9.7146 250.691C9.64606 222.297 9.88481 193.298 9.97063 164.904C10.0871 149.196 10.0477 132.885 10.1642 117.177C10.1554 113.553 10.3011 109.928 10.2938 106.907C10.4365 102.074 11.0452 98.4474 11.9627 94.8204C12.2685 93.6114 12.5758 93.0065 12.8845 93.0058C13.9651 93.0032 14.887 91.1886 15.8088 89.374C16.5763 87.5597 17.6583 88.1612 18.5904 90.5755C19.5239 93.5939 20.4559 96.0081 21.5424 98.422C21.8526 99.0254 22.3142 98.4202 22.7773 98.4191C23.5623 103.854 23.5623 103.854 25.5822 109.287C25.5808 108.682 25.7322 107.474 25.8851 106.869C26.0366 105.661 26.0351 105.057 26.1851 103.244C27.5876 108.678 28.2182 114.113 28.2357 121.363C28.2605 131.633 28.2853 141.903 28.4644 152.173C28.4688 153.985 28.6261 155.193 28.9392 157.005C29.5232 143.108 29.1809 129.214 29.4561 115.319C30.0706 114.109 30.3823 115.316 30.3867 117.129C30.8702 125.585 31.3537 134.042 31.3741 142.5C32.3047 144.31 32.6091 142.497 32.7591 140.684C32.9062 137.663 33.0547 135.246 33.0474 132.225C33.1785 122.559 33.4624 112.288 33.1303 102.623C32.9585 95.3738 32.7851 87.5206 32.7676 80.2711C32.7618 77.8546 32.9103 75.4377 32.9045 73.0212C32.9016 71.813 33.206 69.9999 33.2031 68.7916C32.7254 62.7515 33.7943 57.9159 34.4001 53.0814C35.0059 48.2469 36.235 45.8274 37.4714 46.4286C40.1001 48.2346 42.0923 42.1885 44.2448 38.5586C44.8593 37.3488 45.1637 35.5357 45.6224 33.7222C46.0812 31.9087 46.5385 29.4911 46.9957 27.0735C48.8292 19.2154 49.7321 9.5472 49.8617 -0.723283C49.8559 -3.13978 50.0044 -5.55665 50.1529 -7.97352C50.9029 -17.0372 52.5893 -21.8743 55.0621 -20.6721C56.2986 -20.0709 57.3762 -21.2818 58.6083 -22.493C60.4739 -17.0603 62.788 -17.6701 64.9535 -15.8629C65.4181 -15.2599 65.8739 -18.2816 66.3428 -15.8663C67.1234 -12.2434 67.7365 -14.0572 68.5026 -16.4756C69.4332 -14.6655 70.3696 -10.4388 71.5943 -14.6707C71.7487 -14.6711 71.9031 -14.6714 72.0574 -14.6718C73.1439 -12.2579 74.0643 -14.6766 74.8317 -16.4909C75.5992 -18.3051 76.2109 -20.7231 77.4473 -20.122C77.7619 -17.7062 78.0764 -15.2905 78.391 -12.8747C78.8614 -9.8552 79.4789 -9.85669 80.2478 -11.0668C81.1697 -12.8814 84.0998 -14.0967 84.8746 -12.8904C86.1153 -10.4768 87.3503 -10.4798 88.7411 -9.87905C89.8217 -9.88166 90.9081 -7.46777 91.9829 -9.88687C91.9799 -11.0951 92.1314 -12.3037 92.127 -14.1161C92.2814 -14.1165 92.4358 -14.1169 92.5901 -14.1172C93.9824 -12.9123 94.7674 -7.47708 96.3169 -5.06431C96.7771 -6.27368 97.3917 -7.48342 98.0062 -8.69316C98.3164 -8.08978 98.6295 -6.27815 99.0926 -6.27927C100.482 -6.28262 101.715 -6.88973 103.105 -6.89308C104.031 -6.89532 104.496 -6.29231 105.122 -2.66905C106.374 4.57746 109.154 5.17487 110.841 0.33778C111.454 -1.47608 111.914 -2.68545 112.214 -6.31094C112.686 -2.68731 113.005 1.54081 114.238 0.933706C114.393 0.933334 114.547 0.932961 114.703 1.53671C115.015 2.74422 115.331 5.76409 115.794 5.76297C116.874 5.76037 117.955 5.75776 118.878 4.54727C120.263 2.73155 121.345 3.33306 122.13 8.76832C123.071 14.8073 124.926 16.0111 126.476 18.4239C127.405 19.6299 128.481 17.8149 129.715 17.2078C130.182 19.0191 130.804 20.8299 131.117 22.6416C131.43 24.4532 131.745 26.8689 132.06 29.2847C133.171 41.9687 133.664 54.6542 133.697 67.9449C133.893 85.4642 133.937 103.588 134.134 121.107C134.336 141.043 134.694 161.582 134.897 181.518C134.919 190.58 134.939 199.038 134.807 208.1C134.865 232.265 134.769 256.43 134.826 279.991C134.84 286.032 134.548 292.678 134.408 298.72C134.423 304.761 134.593 311.406 134.608 317.447C134.615 320.468 134.778 324.092 134.785 327.113C134.657 337.988 134.838 348.862 135.173 359.735C135.336 363.359 135.192 367.589 135.2 371.213C135.208 374.234 135.059 376.651 134.448 379.069C133.989 380.882 133.84 383.299 133.846 385.716C133.872 396.59 133.899 407.464 133.77 418.339C133.775 420.151 133.625 421.964 133.784 423.776C133.955 431.025 133.663 437.671 132.442 443.715C131.679 447.342 131.845 452.175 131.703 457.008C131.707 458.82 131.866 460.632 131.097 461.842C130.79 462.447 130.642 465.468 130.801 467.28C131.299 481.778 130.715 495.675 130.13 508.967C129.986 513.196 130.15 517.425 129.234 521.656C128.915 517.428 128.599 514.408 128.282 510.784C126.581 509.58 127.526 517.431 126.601 518.037C126.445 517.434 126.29 516.83 126.29 516.83C126.113 507.768 125.63 499.312 124.992 490.855C124.676 487.836 124.666 483.607 124.658 480.586C124.494 476.358 124.329 472.129 123.243 469.715C122.002 467.302 120.923 467.908 119.853 472.14C119.719 480.598 119.586 489.66 119.454 498.722C119.352 520.471 119.404 542.22 119.458 564.572C119.521 590.55 119.737 615.923 119.799 641.9C119.815 648.545 119.831 655.191 119.693 661.836C119.453 690.231 119.368 719.229 119.128 747.624C119.019 766.352 118.756 785.081 118.492 803.809C118.38 821.329 118.266 838.245 118.154 855.765C118.162 858.786 118.013 861.203 117.71 863.62C117.409 866.641 117.416 869.662 117.269 872.683C116.992 885.974 116.87 899.265 116.593 912.557C116.464 922.827 115.87 932.495 114.967 942.163C114.815 943.372 114.664 944.58 114.668 946.393C114.525 951.226 114.228 956.06 113.311 959.687C113.005 960.896 113.012 963.916 112.862 965.729C112.559 968.146 112.101 969.96 111.645 972.982C109.938 969.361 108.239 968.761 106.704 972.389C105.927 970.579 105.46 968.768 104.839 967.561C104.065 966.354 103.136 965.148 102.215 967.567C101.909 968.776 101.448 969.381 100.985 969.383C100.058 969.385 99.6011 971.802 99.1453 974.824C98.9924 975.429 98.6851 976.033 98.5336 977.242C97.9132 976.035 97.2928 974.829 96.6724 973.622C95.7433 972.416 95.1273 973.021 94.5171 976.044C94.0598 978.461 93.7584 981.483 93.4569 984.504C92.6997 990.547 90.853 992.968 89.4535 988.742C88.8317 986.931 88.3642 985.12 87.7438 983.914C86.9675 982.103 86.0399 981.501 85.2651 980.295C84.0418 985.131 84.5195 991.171 84.3768 996.004C83.7622 997.214 83.4506 996.006 83.2933 994.799C82.9787 992.383 82.6656 990.571 81.8952 991.177C81.7423 991.782 81.5879 991.782 81.5894 992.386C81.4394 994.199 81.5996 996.615 80.6734 996.617C80.2103 996.618 79.8986 995.411 79.5855 993.599C79.4267 991.787 79.2665 989.371 78.4947 989.373C77.8772 989.375 77.5714 990.584 77.2685 993.001C76.5214 1003.27 74.3646 1005.09 72.0534 1006.91C71.5918 1007.51 70.9728 1006.91 70.5097 1006.91C69.5835 1006.91 68.5029 1006.92 68.0398 1006.92C66.9694 1011.15 66.2034 1013.57 65.4388 1016.59C63.9097 1022.64 63.3083 1029.28 64.1005 1037.74C64.2608 1040.15 64.421 1042.57 64.5812 1044.99C64.5826 1045.59 64.5841 1046.19 64.4326 1047.4C63.9608 1043.78 63.4889 1040.16 63.0185 1037.14C62.5496 1034.72 62.0821 1032.91 61.6131 1030.49C60.9971 1031.1 60.6898 1031.7 60.3811 1031.71ZM28.5359 181.775C28.6903 181.774 28.6903 181.774 28.8446 181.774C28.8359 178.149 28.6728 174.525 28.6626 170.296C28.5082 170.296 28.5082 170.296 28.3538 170.297C28.5169 173.921 28.5271 178.15 28.5359 181.775ZM28.798 162.442L28.9538 163.046L29.1067 162.441L28.798 162.442ZM28.7121 190.836L28.7107 190.232L28.5563 190.233C28.7092 189.628 28.5563 190.233 28.7121 190.836C28.7107 190.232 28.7107 190.232 28.7121 190.836ZM144.107 159.747C144.105 159.143 144.104 158.539 144.102 157.935C143.949 158.539 143.795 158.54 143.795 158.54C143.796 159.144 143.952 159.748 143.954 160.352C143.954 160.352 144.108 160.351 144.107 159.747ZM1.61339 347.975C1.61339 347.975 1.45756 347.371 1.30319 347.371C1.14881 347.372 0.841543 347.977 0.995916 347.976C0.997374 348.581 1.15319 349.184 1.31194 350.996C1.30756 349.184 1.46049 348.579 1.61339 347.975ZM60.3811 1031.71C60.384 1032.91 60.3884 1034.73 60.3913 1035.93L60.5457 1035.93C60.5427 1034.73 60.384 1032.91 60.3811 1031.71ZM55.0038 -44.837L55.1597 -44.2333C55.3126 -44.8378 55.3126 -44.8378 55.3111 -45.4419C55.3096 -46.046 55.1553 -46.0456 54.9994 -46.6494C55.1553 -46.0456 55.0024 -45.4411 55.0038 -44.837Z" fill="white"/>
    </svg>
    