<svg width="1096" height="627" viewBox="0 0 1096 627" fill="none" xmlns="http://www.w3.org/2000/svg">
    <path d="M1075.91 395.195C1078.77 392.498 1082.41 393.084 1085.33 393.684C1082.64 404.293 1082.64 404.293 1074.76 409.732C1071.89 411.769 1069.04 414.466 1067.65 417.793C1065.55 421.793 1064.19 426.439 1059.16 429.18C1057.72 429.869 1057.06 433.181 1056.39 435.834C1055.7 437.827 1055.76 440.464 1055.82 443.761C1058.73 443.702 1060.91 443.657 1063.1 444.272C1063.83 444.257 1065.31 445.546 1065.32 446.206C1065.34 446.865 1064.65 448.858 1063.92 448.873C1060.32 450.266 1055.97 451.014 1052.36 452.407C1050.2 453.111 1048.8 455.778 1046.66 457.801C1053.95 458.971 1060.53 460.816 1067.1 462.001C1061.39 467.395 1061.39 467.395 1061.52 473.33C1055.72 474.108 1050.66 475.53 1044.86 476.308C1039.05 477.087 1033.25 477.865 1026.78 481.295C1029.72 482.554 1031.94 484.488 1034.12 484.444C1039.2 484.34 1043.55 483.591 1048.65 484.147C1050.83 484.103 1052.31 485.392 1053.78 486.021C1053.08 487.355 1053.1 488.674 1052.38 488.689C1049.5 490.067 1046.62 491.445 1040.84 493.542C1045.93 493.438 1048.11 493.393 1050.29 493.349C1051.75 493.319 1053.93 493.275 1055.38 493.245C1056.9 496.512 1054.01 497.231 1052.57 497.92C1051.13 498.609 1048.96 499.313 1048.26 500.647C1043.32 508.004 1035.37 510.145 1027.41 512.286C1019.46 514.428 1010.77 515.924 1002.8 517.406C986.867 520.37 971.66 523.319 954.273 526.313C960.127 528.172 965.187 526.75 970.274 526.646C985.508 525.016 1001.47 523.371 1016.7 521.74C1018.16 521.711 1019.6 521.022 1020.34 521.666C1027.68 525.474 1034.91 523.348 1042.9 523.185C1043.68 525.807 1043.74 528.445 1045.22 529.734C1046.71 531.682 1048.91 532.297 1051.11 533.572C1048.35 540.884 1041.07 540.373 1035.33 543.789C1035.35 545.108 1034.68 547.76 1033.99 549.753C1033.3 551.087 1031.14 552.45 1028.99 553.813C1031.18 554.428 1031.92 555.073 1033.39 555.702C1033.4 556.362 1033.43 557.68 1032.7 557.695C1026.93 559.792 1024.12 564.467 1022.04 569.787C1020 576.425 1014.98 579.826 1007.01 581.308C984.579 586.383 962.832 589.466 939.618 591.919C933.091 592.712 927.291 593.49 920.764 594.283C910.617 595.809 899.73 596.691 888.103 596.928C876.476 597.165 864.902 600.04 854.002 600.263C847.461 600.396 840.935 601.189 834.394 601.323C824.207 600.871 812.553 599.789 803.227 605.917C796.686 606.05 791.734 612.748 785.126 609.585C784.386 608.94 782.247 610.963 780.807 611.652C777.913 612.37 775.733 612.415 774.293 613.104C774.226 609.807 774.159 606.51 774.091 603.213C771.898 602.598 769.691 601.324 767.497 600.709C759.49 600.213 750.756 599.731 742.776 600.554C738.416 600.643 734.823 602.695 729.776 604.777C721.688 600.325 710.828 602.525 701.3 598.762C700.614 600.755 700.641 602.074 699.941 603.407L700.668 603.392C696.967 600.17 691.893 600.933 688.26 601.007C680.266 601.17 671.573 602.667 663.606 604.149C662.125 602.86 661.372 601.556 659.905 600.926C659.165 600.281 656.985 600.326 656.272 601C655.558 601.674 655.585 602.993 655.612 604.312C655.639 605.631 656.379 606.275 657.146 608.239C654.953 607.624 653.499 607.653 652.746 606.349C651.265 605.06 651.211 602.423 648.318 603.141C643.971 603.89 639.584 602.66 635.238 603.408C630.891 604.157 625.077 604.275 622.076 599.719C617.729 600.467 612.656 601.231 608.982 599.327C606.129 602.024 604.003 604.706 602.59 606.713C601.136 606.743 600.41 606.758 599.683 606.773C595.282 604.884 584.341 603.128 577.061 602.617C574.154 602.676 570.561 604.728 568.314 601.476C565.42 602.195 562.54 603.573 559.647 604.292C554.587 605.714 549.5 605.818 545.059 601.951C544.319 601.306 540.659 600.061 540.672 600.721C536.393 604.766 531.952 600.899 528.318 600.973C523.231 601.077 518.871 601.166 513.784 601.27C510.151 601.344 505.777 600.773 501.403 600.203C499.963 600.892 497.81 602.255 495.657 603.619C486.842 599.181 477.382 598.714 467.988 601.545C460.035 603.686 452.822 606.472 445.447 601.345C441.773 599.441 439.593 599.486 438.867 599.5C433.793 600.264 428.006 601.701 422.906 601.145C417.806 600.59 413.445 600.679 408.385 602.101C401.159 604.228 394.632 605.021 387.997 600.539C386.584 602.546 385.144 603.235 383.731 605.243C381.524 603.969 380.044 602.68 377.85 602.065C375.657 601.45 372.737 600.85 369.83 600.909C368.376 600.939 366.196 600.984 364.743 601.013C361.85 601.732 360.49 606.377 355.363 604.503C352.429 603.244 348.083 603.992 345.203 605.37C340.869 606.778 338.635 604.185 335.002 604.259C319.768 605.889 305.167 602.889 289.919 603.86C276.126 604.801 262.291 603.764 248.471 603.386C223.736 602.572 198.974 600.439 173.54 600.958C129.937 601.848 87.0486 602.063 43.4464 602.953C36.1795 603.101 29.5853 600.597 22.3452 602.065C20.1651 602.109 17.9715 601.494 15.778 600.879C12.1041 598.975 8.47056 599.049 4.12372 599.798C-0.223001 600.546 -5.2965 601.309 -8.97039 599.405C-14.8378 596.886 -20.6514 597.005 -27.2052 596.479C-30.112 596.538 -32.2921 596.583 -35.2123 595.983C-37.4732 592.071 -32.494 586.692 -39.7879 585.522C-29.0758 576.068 -16.7758 573.178 -2.22821 573.541C13.0594 574.548 29.047 574.222 44.3212 574.57C47.228 574.51 50.1348 574.451 50.7941 571.139C44.9536 569.939 39.8666 570.043 34.0396 569.502C18.7654 569.154 3.49131 568.806 -11.7963 567.799C-18.3502 567.273 -24.877 568.066 -30.7984 562.91C-28.6451 561.546 -25.7518 560.828 -24.3388 558.82C-20.0593 554.774 -14.9859 554.011 -9.899 553.907C-1.91876 553.085 -1.91864 553.085 3.81422 549.01C6.02123 550.284 8.21478 550.899 10.4218 552.173C11.8348 550.165 13.2614 548.817 14.6744 546.809C22.7085 548.624 31.4019 547.127 39.4898 551.58C41.6968 552.854 45.29 550.802 48.1699 549.424C50.3231 548.061 50.2558 544.764 53.9162 546.008C55.3831 546.638 56.8769 548.586 58.3573 549.876C61.9773 549.142 61.1295 543.222 67.0103 546.401C66.2837 546.416 64.8303 546.445 64.8437 547.105C64.1304 547.779 63.4172 548.453 63.4307 549.112C63.4441 549.772 64.1977 551.076 64.9245 551.061C67.1046 551.016 69.2982 551.631 71.4649 550.927C76.5114 548.845 81.5982 548.742 86.6986 549.297C89.5112 544.622 90.9512 543.933 93.1582 545.207C96.0919 546.467 99.0391 548.386 101.986 550.304C103.399 548.297 105.539 546.274 108.473 547.533C109.94 548.163 111.42 549.452 112.887 550.082C116.547 551.327 118.7 549.963 122.253 545.933C134.002 551.63 145.629 551.393 157.835 543.887C168.87 550.259 181.91 548.014 194.25 547.102C200.064 546.983 205.851 545.546 211.678 546.087C217.505 546.627 222.525 543.227 228.405 546.405C230.612 547.679 234.233 546.946 234.905 544.293C236.265 539.648 240.019 545.508 242.859 542.152C244.272 540.144 247.892 539.411 250.772 538.032C251.498 538.018 252.225 538.003 253.679 537.973C257.312 537.899 257.42 543.174 261.013 541.122C264.619 539.729 266.127 542.337 268.334 543.611C269.76 542.263 271.187 540.914 272.6 538.906C274.026 537.558 275.439 535.55 276.866 534.202C284.859 534.038 292.126 533.89 299.353 531.764C300.793 531.075 302.973 531.03 302.987 531.689C306.714 536.231 313.187 532.801 316.888 536.023C320.589 539.246 324.196 537.853 327.035 534.497C327.748 533.823 328.462 533.149 329.188 533.134C334.275 533.03 338.73 537.557 343.722 532.837C344.436 532.163 348.069 532.089 349.536 532.718C359.75 534.489 370.678 535.585 381.538 533.385C382.991 533.355 384.431 532.666 385.171 533.31C400.486 535.637 415.679 532.028 430.227 532.391C445.487 532.079 460.748 531.768 475.996 530.797C487.609 529.9 499.223 529.004 512.277 527.418C509.33 525.499 508.562 523.536 507.109 523.565C499.829 523.054 491.808 521.899 484.541 522.047C448.946 523.433 413.351 524.819 377.756 526.205C347.975 527.473 318.194 528.74 287.672 529.363C272.411 529.675 257.177 531.305 242.603 529.624C236.776 529.083 230.249 529.876 223.722 530.669C209.202 531.625 194.641 530.602 179.367 530.255C169.906 529.788 159.746 530.655 150.312 531.507C131.418 531.893 111.81 532.953 92.9159 533.338C68.9349 533.828 44.9266 532.998 20.9321 532.828C5.65786 532.481 -6.02319 530.08 -18.4847 525.057C-12.7115 522.96 -7.58428 524.835 -2.51079 524.072C2.56258 523.308 8.38965 523.849 13.4766 523.745C18.5636 523.642 24.3905 524.182 29.4371 522.1C29.3967 520.122 29.3563 518.144 29.316 516.166C30.7559 515.477 31.4691 514.802 32.9226 514.773C66.3374 513.431 99.7657 512.749 133.181 511.407C165.882 510.74 198.57 509.413 231.272 508.746C239.266 508.582 247.246 507.76 255.24 507.597C257.42 507.552 260.313 506.833 259.532 504.211C259.492 502.233 256.572 501.633 254.378 501.018C251.471 501.077 247.838 501.151 244.931 501.21C226.777 502.241 209.35 503.256 191.182 503.627C142.493 504.621 93.8041 505.614 45.1151 506.608C27.6742 506.964 10.2198 506.661 -7.24791 505.698C-23.2622 504.705 -39.2901 503.053 -54.5778 502.046C-56.8117 499.453 -55.385 498.105 -53.2184 497.401C-48.8717 496.652 -50.4059 492.726 -48.9929 490.718C-41.7259 490.569 -34.4722 489.762 -27.9319 489.628C-24.2984 489.554 -20.665 489.48 -18.5791 484.82C-25.1194 484.953 -29.5199 483.064 -36.0333 484.516C-41.8201 485.954 -47.6336 486.072 -53.4876 484.213C-57.148 482.968 -62.2081 484.391 -66.5682 484.48C-68.8964 477.271 -63.9576 469.914 -66.2857 462.705C-51.7652 461.749 -37.258 460.134 -23.4641 459.192C-23.4641 459.192 -23.4776 458.533 -22.7644 457.859C-25.6846 457.259 -27.8916 455.984 -30.8118 455.384C-30.8388 454.066 -30.8791 452.087 -30.9195 450.109C-38.2269 448.279 -44.7941 447.094 -52.8283 445.279C-53.5819 443.975 -53.6088 442.656 -55.1026 440.708C-67.497 438.982 -79.9181 435.937 -92.9853 436.863C-97.3455 436.952 -99.5661 435.019 -101.087 431.751C-97.5204 428.38 -93.1737 427.632 -88.1137 426.209C-75.1003 422.645 -66.528 415.214 -65.3303 402.656C-67.6046 398.085 -70.5517 396.166 -75.6386 396.27C-85.0858 396.463 -95.2865 395.351 -104.734 395.544C-125.095 395.3 -145.483 393.737 -165.884 391.515C-173.178 390.345 -179.759 388.5 -186.34 386.655C-187.806 386.025 -188.533 386.04 -192.207 384.136C-177.754 379.883 -166.154 378.327 -154.472 380.727C-147.905 381.913 -140.652 381.105 -133.412 379.638C-130.518 378.919 -129.051 379.549 -126.844 380.823C-126.104 381.468 -123.211 380.749 -121.757 380.719C-119.591 380.016 -117.451 377.993 -115.284 377.289C-113.818 377.919 -113.091 377.904 -112.351 378.548C-110.117 381.141 -107.856 385.053 -104.263 383.001C-101.383 381.623 -100.723 378.311 -97.9108 373.636C-95.0174 372.917 -90.6707 372.169 -85.5972 371.406C-84.8974 370.072 -83.4845 368.064 -82.7846 366.731C-71.9379 363.871 -61.0374 363.648 -49.3698 365.389C-43.5427 365.93 -37.7425 365.152 -31.9424 364.374C-23.2624 362.218 -15.2821 361.395 -7.20761 365.188C-5.01407 365.803 -2.82052 366.418 -0.65389 365.714C13.0861 362.135 26.8936 361.854 40.7009 361.572C59.5951 361.186 78.476 360.141 96.6435 359.77C102.457 359.652 108.271 359.533 114.084 359.414C119.898 359.296 125.738 360.496 131.498 357.74C133.665 357.036 136.585 357.636 139.492 357.576C144.579 357.473 148.979 359.362 154.013 356.62C155.452 355.931 157.646 356.546 159.099 356.517C162.02 357.117 164.953 358.376 167.806 355.679C168.52 355.005 170.713 355.62 172.893 355.575C174.347 355.546 175.827 356.835 176.54 356.161C181.56 352.76 186.647 352.656 192.528 355.834C194.735 357.109 199.835 357.664 201.262 356.316C204.841 353.604 208.529 356.167 210.682 354.804C214.262 352.092 217.236 355.33 220.142 355.271C224.503 355.182 228.849 354.433 233.21 354.344C240.463 353.537 246.936 350.106 254.284 353.914C255.751 354.544 257.917 353.84 259.357 353.151C263.677 351.084 268.064 352.314 272.398 350.906C276.004 349.513 278.292 354.744 282.612 352.676C285.492 351.298 289.125 351.224 292.759 351.15C295.666 351.091 299.299 351.016 302.206 350.957C305.839 350.883 308.733 350.164 313.806 349.401C311.599 348.127 310.132 347.497 309.406 347.512C300.672 347.03 292.665 346.534 283.958 347.372C271.617 348.283 259.25 347.876 246.156 347.483C242.522 347.558 238.162 347.647 233.802 347.736C209.094 348.24 184.386 348.744 159.678 349.248C158.171 346.641 157.404 344.677 155.883 341.41C160.23 340.662 163.123 339.943 166.743 339.209C167.416 336.557 168.102 334.564 168.789 332.571C173.122 331.163 175.329 332.437 176.123 335.719C176.177 338.357 175.504 341.009 174.831 343.662C177.079 346.914 181.452 347.485 184.319 345.447C187.898 342.735 190.092 343.35 193.766 345.254C196.7 346.514 200.32 345.78 202.432 342.439C200.898 338.512 197.157 333.311 200.683 327.962C205.097 330.51 210.211 331.725 210.332 337.66C210.359 338.979 212.579 340.912 213.306 340.898C215.486 340.853 218.38 340.134 219.079 338.801C220.465 335.474 221.125 332.162 222.484 327.517C230.518 329.332 239.279 331.132 247.34 334.266C248.08 334.911 248.834 336.214 249.574 336.859C253.328 342.719 253.328 342.719 262.022 341.223C261.201 336.622 254.015 340.726 252.467 336.14C254.486 328.183 254.486 328.183 265.413 329.279C270.581 333.132 269.329 343.052 280.216 342.171C283.029 337.496 277.875 334.302 279.234 329.657C281.414 329.613 283.581 328.909 285.761 328.864C287.941 328.82 289.435 330.768 291.628 331.383C296.029 333.272 300.416 334.502 304.076 335.747C309.136 334.324 306.176 331.746 306.876 330.412C316.188 323.625 321.45 332.094 328.771 334.583C334.49 329.849 334.49 329.849 343.211 329.671C347.638 332.879 349.953 339.428 356.507 339.954C360.813 337.227 354.919 333.39 357.772 330.693C365.039 330.544 360.8 336.568 363.774 339.806C368.161 341.035 372.535 341.606 377.581 339.524C378.24 336.212 379.627 332.885 380.286 329.574C385.333 327.492 390.433 328.047 394.82 329.277C399.194 329.847 405.007 329.729 410.821 329.61C410.861 331.588 410.888 332.907 410.202 334.9L410.929 334.885C410.888 332.907 410.861 331.588 410.821 329.61C416.635 329.491 422.394 326.735 427.562 330.588C431.909 329.839 436.256 329.091 440.602 328.343C445.756 331.536 444.411 336.84 446.685 341.412C451.072 342.641 453.965 341.923 456.051 337.262C456.738 335.269 457.424 333.277 458.851 331.928C461.677 327.912 466.737 326.49 470.424 329.053C475.578 332.246 479.938 332.157 484.971 329.416C486.411 328.727 490.058 329.312 492.265 330.586C498.16 334.424 503.26 334.98 509.733 331.549C512.613 330.171 516.233 329.438 519.84 328.045C522.006 327.341 524.173 326.637 526.367 327.252C532.947 329.096 540.241 330.267 546.781 330.133C550.482 333.356 554.089 331.963 558.436 331.215C565.676 329.748 572.189 328.295 579.443 327.488C588.863 325.976 597.664 329.755 607.152 331.54C613.652 329.428 620.878 327.302 627.378 325.19C628.818 324.501 630.271 324.471 630.985 323.797C642.437 314.988 656.998 316.01 670.805 315.728C672.985 315.684 675.892 315.624 678.059 314.92C662.785 314.572 647.524 314.884 632.25 314.536C630.07 314.581 627.889 314.625 625.696 314.01C599.467 311.247 573.333 313.1 547.131 311.656C533.297 310.619 519.476 310.241 505.669 310.523C490.408 310.834 475.107 309.168 460.6 310.783C458.42 310.828 455.5 310.227 452.579 309.627C442.392 309.176 432.878 306.072 422.058 310.25C417.725 311.658 412.624 311.103 407.524 310.547C393.703 310.169 379.828 307.154 365.362 310.748C358.122 312.215 350.087 310.4 342.861 312.526C342.134 312.541 342.134 312.541 341.407 312.556C334.046 308.089 326.833 310.875 319.593 312.342C316.7 313.06 313.066 313.135 310.146 312.534C304.319 311.994 297.738 310.149 291.911 309.608C286.084 309.068 280.284 309.846 275.143 307.312C272.936 306.038 269.302 306.112 267.903 308.779C265.077 312.795 261.443 312.869 257.07 312.298C250.489 310.454 244.648 309.254 237.435 312.039C235.995 312.729 233.048 310.81 230.868 310.854C224.328 310.988 218.514 311.106 211.974 311.24C209.067 311.299 206.187 312.677 203.993 312.062C186.485 309.121 168.385 312.789 150.931 312.486C142.924 311.989 134.19 311.508 126.196 311.671C118.202 311.834 110.235 313.316 102.201 311.501C100.735 310.872 97.868 312.909 94.9747 313.628C93.4944 312.339 92.7273 310.375 91.247 309.086C88.2864 306.508 86.0928 305.893 81.7729 307.96C77.4531 310.027 72.3931 311.45 67.3332 312.873C66.6064 312.887 65.1665 313.576 64.4397 313.591C61.5061 312.332 57.8322 310.428 54.9253 310.487C52.0186 310.546 49.1791 313.903 44.765 311.354C43.2981 310.724 41.1046 310.11 39.6646 310.799C32.4648 314.244 25.9111 313.718 20.703 307.887C18.5768 310.569 16.4371 312.592 15.024 314.6C13.5571 313.97 11.3636 313.355 10.6235 312.711C4.71552 308.214 4.71552 308.214 -0.250184 314.252C-0.250184 314.252 -0.97684 314.267 -1.69016 314.941C-3.89716 313.667 -6.13108 311.074 -8.32463 310.459C-10.5182 309.844 -14.1113 311.896 -17.0046 312.615C-18.4984 310.666 -19.2656 308.703 -21.486 306.769C-27.9859 308.881 -34.4859 310.993 -41.7126 313.119C-41.7395 311.8 -42.4931 310.496 -42.5335 308.518C-45.4537 307.918 -49.1142 306.674 -52.7343 307.407C-59.9608 309.534 -66.5415 307.689 -73.822 307.178C-77.4555 307.252 -81.1159 306.007 -84.736 306.741C-89.0827 307.489 -93.4565 306.919 -97.857 305.03C-100.791 303.77 -103.698 303.83 -106.577 305.208C-108.017 305.897 -110.197 305.941 -111.651 305.971C-118.205 305.445 -124.772 304.26 -131.312 304.393C-137.126 304.512 -143.653 305.305 -149.493 304.105C-156.061 302.919 -162.587 303.712 -169.141 303.186C-175.695 302.66 -181.522 302.12 -188.076 301.594C-189.529 301.623 -190.269 300.979 -191.736 300.349C-192.53 297.067 -190.35 297.023 -188.183 296.319C-184.577 294.926 -180.97 293.533 -178.01 296.111C-175.062 298.03 -172.169 297.311 -169.262 297.252C-158.362 297.029 -146.721 297.451 -135.82 297.229C-130.007 297.11 -123.493 295.658 -117.68 295.539C-111.866 295.421 -106.012 297.28 -100.939 296.517C-91.505 295.665 -82.0446 296.131 -72.5974 295.939C-59.5168 295.672 -47.1493 296.079 -34.0552 296.471C-31.8751 296.427 -28.9415 297.686 -26.0078 298.946C-18.8081 295.5 -10.8277 294.678 -2.08044 295.819C-0.627011 295.789 1.57999 297.063 3.03343 297.034C8.12026 296.93 13.2072 296.826 18.2807 296.063C27.7009 294.551 37.8882 295.003 47.3487 295.469C49.529 295.425 51.0226 297.373 53.2298 298.648C54.6696 297.959 57.5765 297.899 59.003 296.551C61.8694 294.513 64.7762 294.454 67.7234 296.373C69.1902 297.003 71.3838 297.618 72.8372 297.588C77.1839 296.84 80.8309 297.425 83.0782 300.677C83.8184 301.322 85.9986 301.277 86.7118 300.603C87.4116 299.269 88.8247 297.262 88.0845 296.617C86.5638 293.35 83.6031 290.772 78.5163 290.875C55.2349 290.031 31.967 289.846 9.42577 289.647C-4.39511 289.269 -18.2293 288.232 -32.0501 287.855C-40.7839 287.373 -49.491 288.211 -58.9247 289.063C-66.9184 289.226 -74.9254 288.73 -82.9462 287.574C-96.0537 286.522 -108.421 286.115 -121.515 285.723C-132.429 285.286 -142.603 285.493 -152.858 281.745C-153.598 281.1 -155.778 281.145 -156.491 281.819C-163.677 285.924 -172.492 281.486 -179.692 284.931C-184.806 283.716 -189.193 282.486 -192.88 279.923C-189.368 273.914 -184.308 272.492 -177.767 272.358C-176.287 273.647 -174.053 276.24 -171.833 278.174C-162.399 277.322 -153.705 275.825 -144.218 277.61C-140.571 278.196 -137.018 274.165 -131.931 274.061C-130.478 274.032 -129.051 272.683 -127.611 271.994C-124.651 274.572 -121.704 276.491 -119.497 277.765C-115.15 277.017 -116.67 273.75 -114.531 271.727C-113.804 271.712 -112.364 271.023 -110.911 270.994C-105.837 270.23 -100.051 268.793 -94.9368 270.008C-90.5497 271.238 -87.6428 271.178 -84.0497 269.126C-81.8965 267.763 -78.263 267.689 -74.616 268.274C-64.4287 268.726 -54.228 269.837 -44.0945 267.651C-39.0211 266.888 -37.487 270.814 -33.7996 273.378C-30.9467 270.681 -28.8069 268.658 -25.9539 265.961C-23.7469 267.236 -20.8266 267.836 -20.0596 269.799C-18.5254 273.726 -14.1787 272.977 -11.218 275.556C-9.83185 272.229 -9.15903 269.577 -7.77289 266.25C-10.6932 265.65 -12.9002 264.376 -15.8071 264.435C-35.4549 263.517 -55.1027 262.598 -74.7506 261.68C-76.9307 261.724 -78.411 260.435 -80.6046 259.82C-76.3251 255.775 -74.7776 260.361 -71.8707 260.302C-68.964 260.243 -66.7839 260.198 -63.1504 260.124C-61.7373 258.116 -60.3243 256.108 -58.8978 254.76C-51.5634 257.908 -44.2965 257.76 -37.8638 252.351C-37.1237 252.996 -37.1101 253.655 -36.37 254.3C-33.3958 257.538 -31.2023 258.152 -29.076 255.47C-25.5502 250.121 -21.19 250.032 -15.336 251.892C-12.4023 253.151 -8.79574 251.758 -4.43544 251.669C-5.22951 248.387 -5.28334 245.749 -6.07729 242.467C-18.4715 240.741 -30.7986 242.312 -43.1795 241.246C-54.8471 239.505 -66.4878 239.083 -78.1958 235.364C-76.7963 232.696 -73.876 233.296 -72.4225 233.267C-34.6205 233.155 2.46811 233.717 40.2701 233.605C64.9914 233.761 88.9995 234.59 113.707 234.086C128.241 233.789 142.049 233.507 156.583 233.21C163.85 233.062 171.817 231.58 179.057 230.113C180.47 228.105 181.869 225.438 183.269 222.771C186.902 222.697 189.809 222.637 192.716 222.578C197.803 222.474 203.63 223.015 208.663 220.274C211.543 218.895 214.45 218.836 218.083 218.762C223.91 219.303 228.957 217.221 233.963 213.161C232.496 212.531 231.77 212.546 230.303 211.916C217.209 211.524 204.074 209.153 190.294 210.754C180.133 211.621 169.933 210.509 159.745 210.058C151.011 209.576 142.264 208.435 132.871 211.266C129.977 211.985 125.59 210.755 122.67 210.155C119.023 209.569 115.376 208.984 112.523 211.681C114.03 214.289 116.91 212.911 119.104 213.526C122.011 213.466 124.191 213.422 127.098 213.363C130.004 213.303 132.184 213.259 135.091 213.2C137.271 213.155 139.451 213.111 141.645 213.725C144.552 213.666 146.732 213.622 149.639 213.562C152.546 213.503 154.726 213.458 157.646 214.058C160.566 214.659 162.76 215.273 165.68 215.874C103.91 217.134 42.0733 215.098 -19.7366 214.381C-20.4633 214.395 -21.9436 213.106 -24.8773 211.847C8.52401 209.846 39.0993 211.86 71.0876 211.867C70.2802 207.926 66.6602 208.659 64.4801 208.704C47.7525 208.385 31.765 208.712 15.0375 208.393C2.68348 208.646 -8.9572 208.224 -21.3246 207.816C-28.605 207.305 -35.1723 206.12 -42.4125 207.587C-44.5925 207.632 -46.7995 206.357 -50.4734 204.453C-48.3337 202.431 -46.1671 201.727 -45.4672 200.393C-44.754 199.719 -45.5212 197.755 -46.2613 197.111C-49.9352 195.207 -52.815 196.585 -54.9145 200.586C-56.3005 203.912 -59.1939 204.631 -62.141 202.712C-62.2756 196.118 -62.2757 196.118 -68.0893 196.237C-68.049 198.215 -67.2684 200.838 -67.2145 203.476C-69.3812 204.179 -71.5478 204.883 -73.7279 204.928C-76.6346 204.987 -78.1151 203.698 -78.8821 201.735C-79.6627 199.112 -78.2226 198.423 -76.0695 197.06C-75.3428 197.045 -75.3697 195.726 -74.6565 195.052C-79.7568 194.496 -84.8572 193.941 -89.9576 193.385C-90.7516 190.103 -90.8054 187.465 -87.1719 187.391C-84.265 187.332 -82.0851 187.287 -79.1782 187.228C-50.7964 188.628 -23.1414 190.042 5.2134 190.123C40.8487 190.715 75.7305 190.003 111.352 189.936C127.353 190.269 142.627 190.617 158.615 190.291C163.702 190.187 168.802 190.743 173.095 187.357C170.861 184.763 168.694 185.467 165.788 185.527C135.979 185.475 106.171 185.424 75.6362 185.388C64.009 185.625 52.3548 184.544 40.7276 184.781C28.3736 185.033 16.7195 183.952 4.35216 183.544C-7.28851 183.122 -18.9426 182.041 -30.5833 181.619C-43.6909 180.567 -56.0718 179.5 -69.1927 177.789C-75.7465 177.263 -82.3137 176.078 -87.5083 170.907C-89.0829 165.002 -83.3366 161.586 -82.7175 156.296C-87.939 149.806 -94.6005 144.005 -101.235 139.523C-104.182 137.604 -108.569 136.374 -112.23 135.129C-115.89 133.885 -119.551 132.64 -123.224 130.736C-126.172 128.817 -126.225 126.18 -124.113 122.838C-115.392 122.66 -106.672 122.482 -97.9514 122.304C-92.8644 122.201 -87.7641 122.756 -83.4307 121.348C-72.5976 117.829 -62.4104 118.281 -51.4829 119.377C-19.4407 122.021 12.5342 121.369 45.2358 120.701C63.4034 120.331 80.8577 120.634 99.0253 120.263C103.385 120.174 107.019 120.1 111.379 120.011C114.273 119.292 115.686 117.284 114.892 114.002C98.8637 112.35 82.8224 110.039 63.1477 107.802C68.2211 107.039 69.661 106.35 71.8411 106.305C95.1225 107.15 118.417 108.653 141.699 109.497C151.886 109.949 162.06 109.741 172.247 110.193C173.62 106.207 174.992 102.221 177.092 98.2202C174.898 97.6053 171.951 95.6865 169.784 96.3904C163.258 97.1833 157.404 95.3237 151.59 95.4423C142.143 95.6352 135.495 90.4936 129.506 82.0401C132.4 81.3214 134.553 79.9582 136.02 80.5878C155.668 81.5062 175.275 80.4463 194.936 82.024C217.505 83.5424 240.772 83.7272 263.327 84.5862C272.061 85.0676 281.508 84.8748 290.242 85.3561C314.25 86.1855 338.245 86.3555 362.239 86.5254C371.686 86.3325 381.134 86.1398 391.281 84.6133C379.64 84.1913 367.986 83.1098 357.072 82.6729C322.163 82.066 287.254 81.4591 252.319 79.5335C216.657 77.6227 180.995 75.7119 145.346 74.4605C130.058 73.4532 114.071 73.7795 98.7829 72.7722C88.5957 72.3204 77.6682 71.2242 67.4405 68.7942C66.6465 65.5121 68.7997 64.1488 70.9798 64.1043C81.8938 64.5413 93.5211 64.3039 104.435 64.7409C134.997 66.0961 164.846 68.1256 195.407 69.4808C212.148 70.4584 229.616 71.4213 246.344 71.7395C260.891 72.1023 274.726 73.1392 289.26 72.8426C318.355 73.5681 347.436 73.6342 376.518 73.7003C415.06 74.233 454.302 73.4321 492.857 74.6241C521.952 75.3497 551.047 76.0752 580.156 77.4601C599.077 78.3933 618.711 78.6522 637.632 79.5853C660.187 80.4444 683.469 81.2885 706.023 82.1475C716.21 82.5992 725.644 81.747 735.831 82.1988C786.768 84.4575 837.637 83.4192 888.533 83.6998C900.9 84.107 913.241 83.1955 926.335 83.588C935.055 83.41 943.063 83.9062 952.523 84.3728C953.304 86.9955 953.344 88.9737 954.138 92.2558C945.418 92.4338 937.437 93.2564 930.17 93.4047C930.964 96.6868 931.745 99.3095 932.525 101.932C931.085 102.621 930.372 103.296 929.659 103.97C923.119 104.103 917.305 104.222 910.765 104.355C909.311 104.385 908.598 105.059 905.705 105.778C913.752 108.252 920.992 106.785 928.354 111.253C915.313 113.498 903.713 115.054 889.946 117.314C899.514 123.056 907.575 126.189 917.022 125.997C930.103 125.73 943.91 125.448 957.005 125.84C989.006 126.506 1020.29 127.847 1052.3 128.513C1054.48 128.468 1056.66 128.424 1058.85 129.039C1060.32 129.669 1061.8 130.958 1061.82 132.277C1061.19 136.907 1066.28 136.803 1069.21 138.063C1069.25 140.041 1067.85 142.708 1068.62 144.671C1067.99 149.302 1069.48 151.251 1071 154.518C1062.3 155.355 1059.54 162.668 1053.8 166.743C1057.5 169.966 1064.06 170.492 1064.91 176.411C1064.29 181.701 1063.65 186.332 1063.05 192.281C1060.88 192.985 1058.72 193.689 1055.81 193.748C1047.09 193.926 1037.63 193.46 1028.92 194.297C1023.83 194.401 1018.02 194.519 1013.75 199.224C1023.22 199.691 1031.95 200.172 1040.68 200.654C1043.59 200.594 1045.78 201.209 1048.69 201.15C1050.88 201.765 1053.09 203.039 1052.4 205.032C1051.72 207.025 1050.29 208.373 1048.87 209.722C1047.44 211.07 1045.25 210.455 1043.08 211.159C1038.72 211.248 1034.36 211.337 1027.82 211.471C1031.49 213.375 1032.97 214.664 1035.18 215.938C1034.52 219.25 1032.34 219.294 1030.16 219.339C1023.62 219.472 1017.08 219.606 1009.84 221.073C1012.76 221.673 1014.97 222.947 1017.89 223.547C1020.08 224.162 1022.26 224.118 1024.44 224.073C1028.09 224.659 1032.43 223.91 1033.25 228.511C1033.29 230.489 1031.88 232.497 1031.18 233.831C1029.78 236.498 1026.88 236.557 1024.71 237.261C1023.98 237.276 1023.27 237.95 1021.82 237.98C1021.83 238.639 1021.84 239.299 1021.87 240.617C1021.88 241.277 1021.9 241.936 1021.92 243.255C1027.76 244.455 1034.34 246.3 1041.64 247.47C1040.28 252.116 1030.79 250.33 1032.38 256.895C1035.3 257.495 1038.95 258.08 1041.87 258.68C1040.45 260.688 1039.77 262.681 1040.55 265.303C1041.3 266.607 1039.18 269.289 1038.49 271.282C1042.88 272.512 1046.52 273.098 1050.91 274.327C1050.96 276.965 1048.06 277.024 1047.33 277.039C1032.78 276.676 1018.25 276.973 1002.98 276.625C994.982 276.788 986.974 276.292 978.981 276.455C968.807 276.663 958.66 278.189 948.446 276.419C947.719 276.433 945.566 277.797 944.853 278.471C945.593 279.116 946.346 280.419 947.8 280.39C962.374 282.071 976.935 283.093 991.51 284.775C996.61 285.331 1002.42 285.212 1007.5 284.449C1020.56 283.522 1032.23 285.263 1045.41 289.612C1039.7 295.006 1033.94 297.762 1027.39 297.236C1018.65 296.755 1011.43 298.881 1004.97 302.971C997.781 307.076 991.254 307.868 984.66 305.364C976.612 302.89 967.878 302.409 959.885 302.572C946.804 302.839 933.737 303.765 921.396 304.677C911.142 300.928 900.389 308.404 890.135 304.655C889.408 304.67 887.955 304.699 887.228 304.714C878.575 308.189 869.827 307.048 861.08 305.908C859.627 305.937 858.16 305.308 857.447 305.982C845.914 310.835 833.533 309.768 821.905 310.006C804.465 310.361 787.051 312.036 769.61 312.392C764.523 312.496 760.122 310.607 755.076 312.689C751.469 314.082 747.082 312.852 739.815 313C743.489 314.904 744.956 315.534 745.682 315.519C766.757 315.089 788.558 314.644 809.632 314.214C830.72 314.443 851.808 314.673 872.896 314.902C896.164 315.087 919.432 315.271 942.699 315.456C957.234 315.159 971.054 315.537 985.588 315.24C989.949 315.151 995.722 313.055 998.75 318.93C999.503 320.234 1006.21 328.013 1006.95 328.658C1006.95 328.658 1007.67 328.643 1007.69 329.302C1017.7 321.182 1029.3 319.626 1044.68 325.249C1044.72 327.227 1045.47 328.531 1045.53 331.168C1058.62 331.561 1073.14 330.605 1089.12 329.619C1090.62 332.227 1090.66 334.205 1092.14 335.494C1098.07 340.651 1094.55 346.659 1094.67 352.594C1094.7 353.913 1093.27 355.261 1091.85 356.61C1089.7 357.973 1086.82 359.351 1083.94 360.729C1082.59 366.034 1087 368.582 1089.25 371.835C1088.62 376.465 1088.73 381.741 1088.12 387.69C1085.23 388.409 1081.62 389.802 1078.74 391.18C1077.3 391.869 1076.61 393.862 1075.91 395.195C1072.25 393.951 1068.58 392.047 1064.29 395.433C1068.65 395.344 1072.28 395.27 1075.91 395.195ZM1068.08 403.271C1066.63 403.301 1065.9 403.316 1064.45 403.345C1063.72 403.36 1063.74 404.02 1063.75 404.679L1064.49 405.324C1066.67 405.279 1068.12 405.249 1068.08 403.271C1068.81 403.256 1069.54 403.242 1070.26 403.227C1070.26 403.227 1070.99 403.212 1070.98 402.552C1070.25 402.567 1069.51 401.923 1069.51 401.923C1069.51 401.923 1068.8 402.597 1068.08 403.271ZM570.184 87.5586C568.73 87.5883 568.017 88.2625 566.564 88.2922C566.564 88.2922 566.577 88.9516 567.304 88.9367C568.031 88.9219 568.744 88.2477 570.184 87.5586C571.731 92.1447 575.351 91.4112 580.425 90.6479C576.038 89.4182 573.117 88.8181 570.184 87.5586ZM73.7929 486.892C69.4192 486.322 65.0456 485.752 60.6854 485.841C43.2444 486.197 26.5304 486.538 6.18269 486.953C9.85658 488.857 11.3235 489.487 12.0501 489.472C30.2312 489.76 48.3987 489.39 65.853 489.693C68.7329 488.315 70.8861 486.952 73.7929 486.892C74.5061 486.218 75.2328 486.203 76.6862 486.174L75.946 485.529C75.2193 485.544 74.5061 486.218 73.7929 486.892ZM532.88 254.556C529.96 253.956 527.766 253.341 526.313 253.37C508.845 252.408 491.391 252.104 473.936 251.801C463.022 251.364 451.382 250.942 440.481 251.164C433.214 251.312 425.22 251.476 417.94 250.965C411.386 250.439 404.832 249.913 398.305 250.706C396.125 250.75 394.726 253.417 391.052 251.513C389.585 250.884 386.705 252.262 383.785 251.662C375.751 249.847 368.457 248.676 360.53 252.136C359.09 252.825 356.91 252.87 355.443 252.24C348.082 247.773 340.856 249.899 333.656 253.344C327.048 250.181 319.674 245.054 313.295 253.1C307.454 251.9 302.34 250.685 296.5 249.485C295.046 249.515 292.14 249.574 291.426 250.248C289.341 254.909 284.967 254.338 281.333 254.412C276.973 254.501 274.012 251.923 271.052 249.345C268.091 246.767 264.458 246.841 261.591 248.878C258.012 251.59 255.105 251.649 252.158 249.73C249.197 247.152 245.563 247.226 241.93 247.301C238.296 247.375 237.61 249.368 236.924 251.361C236.937 252.02 235.484 252.05 234.757 252.065C232.55 250.79 231.07 249.501 228.123 247.582C226.71 249.59 225.297 251.598 223.883 253.606C221.676 252.332 220.196 251.042 217.976 249.109C215.849 251.791 213.71 253.814 209.323 252.584C205.676 251.998 202.042 252.073 198.409 252.147C193.873 243.664 186.66 246.45 177.227 247.302C181.008 254.481 172.355 257.956 173.956 265.18C181.21 264.372 188.517 266.202 195.757 264.735C205.891 262.549 216.791 262.326 227.019 264.756C232.873 266.616 238.673 265.838 244.473 265.06C245.927 265.03 248.08 263.667 249.533 263.637C255.347 263.518 261.147 262.74 266.261 263.955C272.101 265.155 277.148 263.073 282.962 262.955C288.789 263.495 294.616 264.036 299.03 266.585C308.329 259.139 315.704 264.265 323.051 268.074C325.218 267.37 326.671 267.34 327.385 266.666C333.858 263.235 340.385 262.442 347.679 263.613C356.426 264.754 366.586 263.887 375.32 264.368C381.78 260.278 389.087 262.108 396.368 262.619C402.921 263.145 409.502 264.99 415.975 261.559C416.688 260.885 418.868 260.841 419.609 261.485C424.749 264.019 429.069 261.952 433.402 260.544C437.749 259.796 443.563 259.677 447.936 260.247C452.31 260.818 455.204 260.099 459.564 260.01C469.711 258.484 481.297 256.268 491.512 258.039C504.633 259.75 516.933 256.86 530.04 257.912C530.027 257.252 530.74 256.578 532.88 254.556ZM346.804 291.996C349.724 292.596 351.177 292.567 352.631 292.537C370.812 292.826 388.266 293.129 406.447 293.418C419.541 293.81 433.389 295.506 446.443 293.921C449.35 293.861 452.256 293.802 454.463 295.076C460.331 297.595 466.858 296.802 472.644 295.365C478.431 293.928 484.245 293.809 489.372 295.683C492.306 296.943 495.199 296.224 498.079 294.846C503.112 292.104 508.199 292.001 513.299 292.556C526.393 292.949 540.214 293.326 553.295 293.059C560.562 292.911 567.075 291.459 574.275 288.013C573.494 285.391 572.714 282.768 571.22 280.819C569.699 277.552 566.133 280.923 564.653 279.634C558.759 275.796 552.972 277.234 547.898 277.997C547.199 279.331 546.485 280.005 545.772 280.679C540.16 290.689 540.16 290.689 531.278 282.954C529.865 284.962 527.726 286.984 525.599 289.666C524.079 286.399 523.298 283.776 521.778 280.509C516.018 283.265 510.917 282.71 505.063 280.85C500.676 279.621 495.603 280.384 490.502 279.828C487.663 283.184 485.537 285.866 483.41 288.549C480.49 287.948 477.583 288.008 475.403 288.052C472.429 284.815 473.761 278.85 467.907 276.991C467.208 278.325 466.494 278.999 465.781 279.673C462.228 283.704 461.502 283.718 456.347 280.525C449 276.717 439.579 278.229 433.16 284.297C432.447 284.971 431.72 284.986 431.72 284.986C428.073 284.401 428.692 279.111 424.359 280.518C423.673 282.511 422.26 284.519 420.847 286.527C419.353 284.579 417.859 282.63 417.106 281.326C412.019 281.43 406.932 281.534 401.118 281.652C400.418 282.986 399.719 284.32 398.279 285.009C396.152 287.691 393.286 289.728 389.598 287.165C386.651 285.246 382.305 285.994 379.425 287.373C375.832 289.425 372.211 290.158 367.811 288.269C367.757 285.632 367.703 282.994 368.376 280.342C364.743 280.416 361.836 280.475 361.903 283.772C361.957 286.41 361.257 287.743 359.091 288.447C356.883 287.173 354.69 286.558 352.483 285.284C349.616 287.321 348.19 288.67 346.804 291.996ZM166.245 279.19C164.092 280.553 161.185 280.612 159.759 281.961C154.039 286.695 147.526 288.148 140.272 288.955C138.092 289 135.212 290.378 131.592 291.111C134.54 293.03 136.774 295.623 138.227 295.594C144.74 294.141 151.334 296.645 157.888 297.171C160.068 297.127 162.235 296.423 163.675 295.734C165.842 295.03 167.268 293.682 168.708 292.993C170.915 294.267 171.669 295.571 173.136 296.201C178.276 298.734 184.036 295.978 183.202 290.718C182.408 287.436 183.78 283.45 180.093 280.886C175.746 281.635 172.14 283.028 172.961 287.628C172.974 288.288 171.534 288.977 170.807 288.992C170.081 289.007 168.614 288.377 168.6 287.717C168.547 285.08 167.766 282.457 166.245 279.19ZM-0.19639 245.646C-0.0483507 252.899 -0.0483507 252.899 7.91843 251.417C9.37186 251.387 10.8117 250.698 11.552 251.343C13.7724 253.277 16.6793 253.217 18.8459 252.513C23.9058 251.091 28.2527 250.342 32.6667 252.891C33.4069 253.535 35.587 253.491 36.3002 252.817C40.5797 248.771 44.9802 250.661 49.3674 251.89C51.5609 252.505 52.2338 249.853 51.4398 246.571C44.1593 246.06 36.1387 244.904 28.8852 245.712C24.5384 246.46 20.1512 245.23 16.5311 245.964C11.4712 247.386 7.78385 244.823 4.15033 244.897C2.6969 244.927 1.25704 245.616 -0.19639 245.646ZM127.986 292.504C126.452 288.578 124.918 284.651 124.11 280.71C121.997 284.051 120.598 286.718 119.185 288.726C113.398 290.163 110.397 285.607 106.077 287.674C102.471 289.067 98.1237 289.816 93.7904 291.223C94.5575 293.187 94.5979 295.165 95.3381 295.809C96.0917 297.113 98.2852 297.728 99.7386 297.699C104.085 296.95 108.405 294.883 112.119 298.765C112.119 298.765 112.846 298.75 113.573 298.736C117.893 296.668 122.939 294.586 127.986 292.504ZM253.49 279.388C250.65 282.745 246.357 286.13 247.918 291.376C262.493 293.057 267.566 292.294 274.739 287.53C268.132 284.367 262.237 280.529 253.49 279.388ZM799.216 195.687C784.601 192.027 746.086 192.813 736.679 194.984C741.093 197.533 745.386 194.147 749.76 194.717C764.361 197.718 778.855 195.443 793.416 196.465C795.61 197.08 797.763 195.717 799.216 195.687ZM147.432 247.91C139.33 242.798 129.924 244.969 121.23 246.466C119.05 246.51 114.69 246.599 114.771 250.556C114.784 251.215 115.511 251.2 115.511 251.2C121.351 252.4 127.151 251.622 133.005 253.482C138.133 255.356 144.646 253.904 147.432 247.91ZM337.33 290.87C335.809 287.603 334.315 285.655 334.315 285.655C329.969 286.403 326.335 286.477 323.361 283.239C319.781 285.951 315.394 284.721 311.034 284.81C308.854 284.855 306.687 285.559 304.534 286.922C303.821 287.596 303.121 288.93 303.134 289.589C303.148 290.249 304.628 291.538 306.082 291.508C315.542 291.975 325.716 291.767 337.33 290.87ZM68.8942 246.874C67.5081 250.201 69.715 251.475 71.8951 251.431C79.1756 251.942 85.7562 253.786 92.9829 251.66C96.603 250.926 101.004 252.815 105.283 248.77C92.1486 246.4 80.4945 245.318 68.8942 246.874ZM593.169 287.628C600.463 288.798 606.277 288.68 612.063 287.242C615.684 286.509 618.55 284.471 617.016 280.544C610.462 280.018 603.922 280.152 596.641 279.641C595.955 281.634 594.555 284.301 593.169 287.628ZM806.47 194.879C810.144 196.783 813.037 196.064 816.684 196.65C820.317 196.576 823.964 197.161 827.598 197.087C831.231 197.012 835.592 196.923 839.225 196.849C842.132 196.79 845.792 198.035 848.618 194.019C844.245 193.449 840.584 192.204 836.951 192.278C827.504 192.471 818.057 192.664 809.336 192.842C807.883 192.871 807.169 193.546 806.47 194.879ZM250.57 207.544C247.73 210.901 246.317 212.908 244.177 214.931L244.917 215.576C258.765 217.272 266.772 217.768 280.526 214.849C269.639 215.731 260.838 211.952 250.57 207.544ZM345.983 216.152C356.937 218.567 388.185 217.929 398.319 215.743C388.872 215.936 380.138 215.454 372.144 215.618C362.697 215.81 354.636 212.677 345.983 216.152ZM493.126 87.812C500.407 88.323 507.674 88.1748 514.954 88.6858C522.235 89.1969 530.242 89.6932 537.496 88.8854C522.881 85.2257 507.647 86.856 493.126 87.812ZM330.709 215.804C319.754 213.389 308.84 212.952 297.98 215.152C308.934 217.567 319.875 219.323 330.709 215.804ZM946.131 198.625C941.744 197.396 936.657 197.499 932.283 196.929C930.103 196.973 926.47 197.048 924.989 195.759C919.822 191.906 914.775 193.988 908.988 195.425C909.742 196.729 910.482 197.374 911.209 197.359C922.123 197.796 933.764 198.218 946.131 198.625ZM371.969 349.533C371.929 347.555 372.642 346.881 372.602 344.903C362.428 345.11 352.981 345.303 343.534 345.496C341.354 345.54 339.927 346.889 341.434 349.497C351.622 349.949 361.688 344.466 371.969 349.533ZM193.402 291.829C195.596 292.444 197.076 293.733 198.53 293.703C204.343 293.585 210.117 291.488 216.684 292.673C216.684 292.673 218.11 291.325 218.097 290.665C218.083 290.006 217.343 289.361 216.617 289.376C213.71 289.435 210.09 290.169 207.883 288.895C201.275 285.731 197.695 288.443 193.402 291.829ZM182.219 100.095C182.986 102.058 183.013 103.377 183.013 103.377C188.113 103.932 193.2 103.828 198.287 103.725C199.741 103.695 201.167 102.346 199.66 99.7386C194.573 99.8424 188.759 99.9611 182.219 100.095ZM103.83 213.178C89.9684 210.822 87.7883 210.867 77.6818 214.371C88.5688 213.489 95.8897 215.979 103.83 213.178ZM223.87 288.568C226.885 293.784 229.805 294.384 237.718 290.265C236.978 289.62 236.238 288.976 235.511 288.99C231.877 289.065 228.244 289.139 223.87 288.568ZM170.686 247.435C168.493 246.82 167.026 246.191 165.559 245.561C161.912 244.976 160.485 246.324 162.006 249.591C162.02 250.251 162.76 250.895 162.773 251.555C164.281 254.163 167.187 254.103 169.327 252.081C170.754 250.732 170.727 249.413 170.686 247.435ZM91.2874 275.442C95.6341 274.694 98.5274 273.975 101.421 273.257C99.1599 269.345 95.4996 268.1 91.1528 268.849C91.9199 270.812 91.9468 272.131 91.2874 275.442ZM404.401 86.3245C404.415 86.9839 404.415 86.9839 404.428 87.6433C407.335 87.584 409.515 87.5395 412.422 87.4802C414.602 87.4357 416.769 86.7318 418.222 86.7021L418.209 86.0427C413.122 86.1465 408.762 86.2355 404.401 86.3245ZM153.138 206.894C153.124 206.235 153.097 204.916 153.084 204.257C150.904 204.301 149.437 203.671 147.27 204.375C146.544 204.39 145.844 205.724 145.857 206.383C145.871 207.043 146.611 207.687 147.338 207.672C149.504 206.968 150.958 206.939 153.138 206.894ZM666.122 193.126C668.329 194.4 671.303 197.638 673.389 192.978C671.209 193.022 669.029 193.067 666.122 193.126ZM151.106 249.814C153.313 251.088 154.066 252.392 155.533 253.022C155.533 253.022 157.686 251.659 157.673 250.999C157.646 249.68 156.166 248.391 155.412 247.087C153.972 247.776 152.532 248.465 151.106 249.814ZM51.1169 266.367C49.7038 268.375 48.9906 269.049 49.0041 269.709C49.031 271.028 50.5114 272.317 51.2515 272.961C51.9647 272.287 53.4045 271.598 53.3911 270.939C52.651 270.294 51.8974 268.99 51.1169 266.367ZM461.851 87.131C461.865 87.7904 461.878 88.4497 461.892 89.1091C464.799 89.0498 468.432 88.9756 471.325 88.257L471.312 87.5976C468.392 86.9975 464.758 87.0716 461.851 87.131ZM136.787 118.173C136.8 118.832 136.8 118.832 136.814 119.492C138.994 119.447 141.174 119.403 143.367 120.018L144.081 119.344L143.341 118.699C141.147 118.084 138.967 118.129 136.787 118.173ZM893.405 108.668C895.585 108.623 897.038 108.594 898.492 108.564C898.492 108.564 899.191 107.23 899.178 106.571C897.711 105.941 896.258 105.971 894.804 106C894.804 106 894.104 107.334 893.405 108.668ZM1031.44 495.713L1031.42 495.053C1029.97 495.083 1028.52 495.113 1027.06 495.142L1027.08 495.802C1028.53 495.772 1029.98 495.742 1031.44 495.713ZM450.197 86.0495C447.29 86.1088 445.837 86.1385 442.917 85.5384C446.618 88.7613 446.618 88.7612 450.197 86.0495ZM924.478 277.567C924.492 278.227 924.505 278.886 924.532 280.205C927.439 280.146 929.632 280.761 932.539 280.701C933.266 280.686 933.979 280.012 933.966 279.353C933.952 278.693 933.198 277.389 933.198 277.389C930.278 276.789 927.371 276.849 924.478 277.567ZM9.78906 271.828C10.5023 271.154 11.2156 270.48 11.2156 270.48C11.9288 269.806 12.6285 268.472 13.3417 267.798C12.6151 267.813 11.1483 267.183 11.1483 267.183C10.4351 267.857 9.73523 269.191 9.74869 269.85C9.03537 270.525 9.03537 270.525 9.78906 271.828ZM66.4315 268.693C66.4449 269.353 65.7317 270.027 65.7317 270.027C67.1985 270.657 67.9387 271.301 69.3922 271.272C70.1188 271.257 71.5587 270.568 72.2719 269.894L71.5048 267.93C69.3247 267.975 67.8848 268.664 66.4315 268.693ZM718.485 194.036C718.498 194.696 718.498 194.696 718.512 195.355C719.965 195.325 720.705 195.97 722.159 195.94C723.612 195.911 724.325 195.236 725.779 195.207C725.765 194.547 725.765 194.547 725.752 193.888C722.845 193.947 720.665 193.992 718.485 194.036ZM975.199 198.032L975.186 197.373C973.006 197.417 970.825 197.462 969.372 197.491L969.385 198.151C970.839 198.121 973.019 198.077 975.199 198.032ZM604.352 194.387C604.366 195.046 604.366 195.046 604.379 195.705C605.833 195.676 607.286 195.646 609.466 195.602L609.453 194.942C607.986 194.313 605.806 194.357 604.352 194.387ZM702.04 314.431C703.52 315.72 705.727 316.994 707.854 314.312C705.673 314.357 704.22 314.386 702.04 314.431ZM646.891 283.893C647.632 284.537 647.658 285.856 648.385 285.841C649.839 285.811 650.552 285.137 652.005 285.108C651.265 284.463 651.238 283.144 650.511 283.159C649.045 282.529 647.605 283.218 646.891 283.893ZM539.124 275.537L538.397 275.552C538.438 277.53 538.465 278.849 538.505 280.827L539.232 280.813C539.205 279.494 539.165 277.516 539.124 275.537ZM1002.84 198.787C1002.84 198.787 1003.57 198.772 1003.55 198.113C1002.83 198.128 1002.81 197.468 1002.09 197.483C1001.36 197.498 1001.37 198.158 1000.65 198.172C1002.11 198.802 1002.84 198.787 1002.84 198.787ZM890.821 195.796C891.561 196.441 892.301 197.085 892.301 197.085C893.028 197.071 894.468 196.381 895.195 196.367L894.454 195.722C893.728 195.737 892.274 195.767 890.821 195.796ZM-2.51114 203.474C-2.49768 204.134 -2.48422 204.793 -1.74399 205.438C0.436103 205.393 2.60273 204.689 6.96291 204.6C3.30247 203.356 1.83558 202.726 1.10893 202.741C-0.344507 202.77 -1.0577 203.445 -2.51114 203.474ZM881.71 105.608C880.997 106.282 880.27 106.297 879.557 106.971C879.57 107.631 880.311 108.275 880.324 108.935C881.037 108.26 882.477 107.571 883.19 106.897C883.177 106.238 882.45 106.253 881.71 105.608ZM856.289 106.787C857.016 106.772 857.029 107.431 857.756 107.416C858.483 107.401 859.196 106.727 860.649 106.698C859.196 106.727 857.742 106.757 856.289 106.787ZM331.974 349.03C332.687 348.356 333.414 348.341 333.4 347.682L332.66 347.037C331.933 347.052 331.22 347.726 331.234 348.386C331.234 348.386 331.247 349.045 331.974 349.03ZM305.584 338.355C306.31 338.34 307.051 338.984 307.777 338.969C308.491 338.295 308.477 337.636 309.19 336.962C308.464 336.976 307.723 336.332 306.997 336.347C306.27 336.362 305.57 337.695 305.584 338.355ZM634.416 278.21C633.69 278.225 632.976 278.899 632.25 278.914C632.263 279.574 633.003 280.218 633.017 280.877C633.743 280.863 634.457 280.188 635.183 280.174C635.17 279.514 634.43 278.87 634.416 278.21ZM75.1653 269.175C75.9189 270.479 75.9324 271.138 76.6726 271.783C77.3859 271.108 78.8257 270.419 79.539 269.745L78.7853 268.441C77.3319 268.471 76.6052 268.486 75.1653 269.175ZM121.836 204.894L122.576 205.539L122.562 204.88L121.836 204.894ZM629.8 194.527L629.06 193.882L629.074 194.542L629.8 194.527ZM628.441 92.3065L629.168 92.2917C629.154 91.6323 628.428 91.6472 628.414 90.9878C629.154 91.6324 629.168 92.2917 628.441 92.3065ZM175.652 205.775L175.665 206.434L177.105 205.745L175.652 205.775ZM704.691 194.977L703.964 194.992L703.978 195.652L704.704 195.637C703.978 195.652 703.964 194.992 704.691 194.977ZM529.65 274.411C529.65 274.411 530.377 274.397 530.39 275.056C530.377 274.397 529.65 274.411 529.637 273.752C530.377 274.397 530.377 274.397 529.65 274.411ZM663.498 278.276C663.498 278.276 662.771 278.291 662.758 277.632L662.771 278.291L663.498 278.276C663.511 278.936 663.511 278.936 663.498 278.276ZM391.509 345.176L390.783 345.191L390.796 345.851C390.796 345.851 390.796 345.851 391.509 345.176ZM-2.52433 487.79C-2.52433 487.79 -1.79767 487.776 -1.81113 487.116C-1.81113 487.116 -1.82447 486.457 -2.55124 486.472C-3.2779 486.486 -3.26456 487.146 -3.99122 487.161C-3.2511 487.805 -3.25098 487.805 -2.52433 487.79ZM955.484 15.7072C950.397 15.811 944.57 15.2703 938.756 15.3889C911.855 15.2783 884.967 15.8271 858.065 15.7165C834.797 15.5317 811.529 15.3469 788.262 15.1621C764.267 14.9922 740.286 15.4816 715.551 14.6671C690.103 14.5268 664.628 13.0678 639.167 12.2682C622.439 11.9499 606.425 10.9574 589.684 9.97974C556.215 8.68384 522.733 6.72854 489.277 6.09204C447.829 5.61864 407.12 5.78988 365.671 5.31648C356.95 5.49446 348.957 5.65767 340.223 5.17625C321.315 4.90247 301.681 4.64358 282.773 4.3698C277.686 4.47362 271.859 3.93287 266.799 5.35551C260.313 8.12657 257.271 1.59193 251.485 3.0294C247.864 3.76291 244.217 3.17766 241.338 4.55581C237.731 5.94872 233.371 6.03777 229.737 6.11193C217.37 5.70467 205.003 5.2974 192.649 5.54954C186.108 5.68303 179.554 5.15711 173.001 4.63124C159.893 3.5794 147.526 3.17213 134.432 2.77976C119.157 2.43182 103.897 2.74329 88.6225 2.39541C73.3483 2.04747 58.0606 1.04018 42.773 0.0328365C39.1395 0.106996 34.0526 0.210817 31.1727 1.5889C23.9865 5.69355 16.7195 5.84187 9.45242 5.99019C8.72577 6.00502 7.28567 6.69409 5.1325 8.0574C7.35296 9.99107 8.83331 11.2802 10.3002 11.9099C13.9606 13.1545 17.5807 12.421 20.5145 13.6804C22.708 14.2953 24.915 15.5696 25.6821 17.5329C26.4492 19.4963 25.7628 21.4893 25.8032 23.4675C31.6437 24.6676 36.7576 25.8826 41.8713 27.0975C46.2585 28.3273 47.0929 33.5876 43.4997 35.6399C40.6332 37.6775 37.0402 39.7297 33.4336 41.1227C31.267 41.8266 29.1003 42.5305 29.8808 45.1532C36.4885 48.3166 43.7554 48.1684 51.0359 48.6795C61.9634 49.7757 74.2635 46.886 84.5988 54.5911C85.3389 55.2356 87.519 55.1911 88.2458 55.1763C94.0728 55.7171 99.8999 56.2577 105.713 56.1391C130.462 57.613 155.91 57.7533 180.685 60.546C209.82 63.2496 239.642 63.9603 268.75 65.3452C273.851 65.9007 278.924 65.1376 283.298 65.7079C308.033 66.5225 332.054 68.0112 356.789 68.8257C375.697 69.0994 394.604 69.3732 412.785 69.6618C441.867 69.7279 470.949 69.794 500.044 70.5195C526.218 70.645 551.68 71.4446 577.868 72.2295C610.61 73.5402 644.079 74.8361 676.834 76.8062C686.295 77.2728 695.755 77.7394 705.216 78.206C726.304 78.4353 748.105 77.9903 769.192 78.2195C821.569 79.7892 873.891 78.7213 926.214 77.6534C934.934 77.4754 944.368 76.6232 953.075 75.7859C956.708 75.7117 960.315 74.3188 959.494 69.7179C957.287 68.4436 954.353 67.1841 952.133 65.2504C955.026 64.5317 957.92 63.8131 960.813 63.0943C961.486 60.4419 962.159 57.7895 962.845 55.7965C959.831 50.5807 952.577 51.3884 950.989 44.8242C957.475 42.0531 965.469 41.89 968.955 34.5625C968.066 26.6647 964.298 20.1449 955.484 15.7072ZM11.7673 333.137C2.29327 332.011 -7.90743 330.9 -18.041 333.086C-17.22 337.687 -17.1258 342.302 -16.3048 346.903C-13.398 346.844 -10.4913 346.785 -6.87124 346.051C-9.83194 343.473 -11.3256 341.524 -14.2998 338.287C-10.6797 337.553 -9.23974 336.864 -7.04619 337.479C-3.41267 337.405 -2.65898 338.709 -1.85158 342.65C-1.82466 343.969 -1.08455 344.614 -1.05763 345.932C0.395801 345.903 1.86269 346.532 3.31612 346.503C20.0034 344.843 36.0715 348.473 52.7319 345.494C54.8985 344.79 57.8321 346.05 60.7525 346.65C62.9326 346.605 65.1262 347.22 67.3063 347.176C66.4988 343.234 66.4315 339.937 65.6374 336.655C54.6427 332.262 44.3881 328.513 31.3748 332.077C32.1285 333.381 32.1554 334.7 32.8955 335.344C33.6356 335.989 35.0756 335.3 36.5156 334.611C39.4088 333.892 40.8893 335.181 40.9431 337.819C40.9701 339.138 39.5435 340.486 38.1036 341.175C37.3904 341.849 35.2103 341.894 34.4835 341.909C30.083 340.019 26.5033 342.731 22.1833 344.798C18.4691 340.916 15.4816 337.019 11.7673 333.137ZM-73.997 334.228C-76.1098 337.569 -78.9627 340.266 -78.8819 344.222C-77.4152 344.852 -77.4017 345.512 -76.6749 345.497C-63.5808 345.889 -50.5002 345.622 -36.6929 345.34C-35.9662 345.325 -34.5128 345.296 -34.5262 344.636C-33.8264 343.303 -32.4 341.954 -31.7002 340.621C-31.7271 339.302 -32.4942 337.339 -33.9611 336.709C-36.8948 335.449 -39.8284 334.19 -41.9413 337.531C-42.641 338.865 -44.081 339.554 -45.5075 340.903C-46.288 338.28 -47.0551 336.317 -47.8222 334.353C-48.5758 333.049 -50.7694 332.434 -52.2229 332.464C-54.403 332.508 -54.3626 334.487 -54.3222 336.465C-54.2953 337.784 -54.2818 338.443 -54.2415 340.421C-61.522 339.91 -66.0302 332.746 -73.997 334.228ZM742.507 622.988C746.921 625.537 750.501 622.825 754.861 622.736C756.933 617.416 762.774 618.616 766.353 615.905C767.067 615.23 768.507 614.541 769.206 613.208C769.179 611.889 769.139 609.911 768.399 609.266C762.491 604.769 756.704 606.207 753.205 612.875C752.506 614.208 751.792 614.883 751.079 615.557C743.085 615.72 737.151 609.904 728.43 610.082C727.838 616.691 731.566 621.232 735.307 626.433C738.16 623.736 739.56 621.069 742.507 622.988ZM96.8049 332.061C95.3515 332.091 93.1714 332.135 90.9913 332.18C91.8256 337.44 92.6466 342.041 93.481 347.301C101.475 347.138 108.028 347.664 115.295 347.516C116.022 347.501 116.735 346.827 117.449 346.152C116.682 344.189 114.488 343.574 114.421 340.277C115.053 335.647 113.586 335.017 109.199 333.787C107.732 333.157 105.566 333.861 104.099 333.231C101.232 335.269 101.327 339.885 95.513 340.003C96.1859 337.351 96.8588 334.699 96.8049 332.061ZM-127.679 339.941C-129.132 339.971 -130.572 340.66 -131.312 340.015C-133.519 338.741 -134.286 336.778 -137.92 336.852C-140.813 337.57 -143.76 335.652 -146.613 338.348C-148.04 339.697 -151.754 335.815 -153.127 339.801C-148.686 343.668 -143.612 342.905 -138.512 343.46C-133.412 344.016 -127.558 345.876 -122.551 341.815C-121.838 341.141 -120.331 343.749 -119.645 341.756C-119.672 340.437 -119.698 339.118 -120.465 337.155C-123.345 338.533 -125.512 339.237 -127.679 339.941ZM-168.401 339.453C-169.155 338.149 -170.648 336.2 -171.362 336.875C-174.255 337.593 -176.448 336.978 -179.396 335.06C-183.083 332.496 -186.676 334.548 -190.215 339.238C-182.921 340.409 -176.368 340.935 -169.087 341.446C-169.101 340.786 -169.114 340.127 -168.401 339.453ZM-130.088 435.642C-126.441 436.227 -123.507 437.486 -119.86 438.072C-118.393 438.701 -116.226 437.997 -116.28 435.36C-116.307 434.041 -117.787 432.752 -118.514 432.767C-122.148 432.841 -125.781 432.915 -129.415 432.989C-129.401 433.649 -130.101 434.982 -130.088 435.642ZM-83.9689 344.326C-86.9429 341.089 -89.8901 339.17 -94.9771 339.274C-94.9367 341.252 -94.8964 343.23 -94.8694 344.549C-90.4553 347.097 -87.5755 345.719 -83.9689 344.326ZM-101.477 341.385C-100.078 338.718 -99.4046 336.066 -104.532 334.191C-105.931 336.859 -107.344 338.866 -109.457 342.208C-105.797 343.452 -102.877 344.052 -101.477 341.385ZM-67.8334 315.631C-64.8592 318.869 -62.0871 312.216 -59.8262 316.128C-59.1265 314.794 -59.14 314.135 -58.4402 312.801C-62.8139 312.231 -66.4473 312.305 -67.8334 315.631ZM132.656 343.203C134.809 341.84 136.249 341.151 137.689 340.462C137.662 339.143 137.648 338.484 136.908 337.839C136.154 336.535 135.401 335.231 133.907 333.283C129.614 336.669 129.668 339.306 132.656 343.203ZM84.6932 344.182C83.9531 343.538 82.5132 344.227 81.0597 344.256L80.3465 344.931C81.0866 345.575 81.8403 346.879 82.5669 346.864C84.0338 347.494 85.4738 346.805 88.3806 346.746C86.9003 345.456 86.1601 344.812 84.6932 344.182ZM-98.3954 207.41C-96.9421 207.381 -95.5021 206.692 -94.0621 206.003C-94.8157 204.699 -95.5828 202.735 -96.3095 202.75C-97.0497 202.105 -99.2164 202.809 -102.11 203.528C-99.8892 205.462 -99.1356 206.766 -98.3954 207.41ZM-128.257 204.721C-128.257 204.721 -128.244 205.381 -127.517 205.366C-125.324 205.981 -122.39 207.24 -120.21 207.196C-118.016 207.811 -116.576 207.122 -117.37 203.84C-120.277 203.899 -123.924 203.314 -126.831 203.373C-127.544 204.047 -127.531 204.707 -128.257 204.721ZM146.355 337.646C147.795 336.957 149.235 336.268 150.675 335.579C150.675 335.579 149.921 334.275 149.908 333.616C148.468 334.305 147.028 334.994 145.588 335.683C145.588 335.683 144.875 336.357 144.162 337.031C145.615 337.002 145.629 337.661 146.355 337.646ZM696.711 623.263C698.891 623.219 701.798 623.159 701.018 620.537C701.004 619.877 698.797 618.603 697.344 618.633C695.89 618.662 695.19 619.996 693.024 620.7C695.231 621.974 695.984 623.278 696.711 623.263ZM-0.317744 25.9795C1.8758 26.5945 3.35615 27.8836 5.49586 25.8609C5.49586 25.8609 5.48241 25.2015 5.46895 24.5421C3.2754 23.9273 1.82197 23.9569 -0.371575 23.342C-0.371575 23.342 -1.09835 23.3569 -2.53821 24.0459C-0.331201 25.3202 -0.317744 25.9795 -0.317744 25.9795ZM-161.901 337.341C-161.874 338.66 -160.394 339.949 -159.64 341.253C-158.927 340.579 -157.487 339.89 -157.5 339.23C-157.527 337.912 -158.281 336.608 -159.048 334.644C-160.474 335.993 -161.914 336.682 -161.901 337.341ZM-41.6991 313.779C-43.8658 314.482 -45.3191 314.512 -48.2125 315.231C-46.7321 316.52 -45.992 317.165 -45.2519 317.809C-44.5251 317.794 -43.0717 317.765 -43.0717 317.765C-42.372 316.431 -41.6722 315.097 -41.6991 313.779ZM-135.228 433.108C-136.709 431.819 -138.175 431.189 -139.602 432.538C-140.315 433.212 -141.028 433.886 -141.001 435.205C-139.548 435.175 -138.808 435.82 -137.354 435.79C-135.901 435.76 -135.188 435.086 -134.475 434.412C-134.488 433.752 -134.502 433.093 -135.228 433.108ZM-93.9812 316.825C-94.6676 318.818 -91.7608 318.758 -90.3073 318.729C-89.5807 318.714 -88.1407 318.025 -87.441 316.691C-87.4544 316.032 -88.9212 315.402 -89.6748 314.098C-91.8415 314.802 -94.0082 315.506 -93.9812 316.825ZM-157.339 204.655C-157.326 205.315 -156.572 206.619 -156.572 206.619C-155.845 206.604 -154.405 205.915 -153.692 205.241C-154.432 204.596 -155.159 204.611 -155.172 203.951C-155.899 203.966 -156.626 203.981 -157.339 204.655ZM186.795 217.422C184.615 217.466 181.708 217.525 179.528 217.57L179.541 218.229C181.721 218.185 184.628 218.125 186.808 218.081C186.808 218.081 186.808 218.081 186.795 217.422ZM688.569 616.173C688.569 616.173 687.816 614.869 687.076 614.224C686.362 614.899 684.922 615.588 684.209 616.262C684.209 616.262 684.963 617.566 685.703 618.21C686.416 617.536 687.856 616.847 688.569 616.173ZM645.815 622.983C647.268 622.953 649.449 622.908 650.902 622.879L650.889 622.219C648.708 622.264 647.255 622.293 645.815 622.983C645.802 622.323 645.802 622.323 645.815 622.983ZM-76.7421 484.687C-76.0289 484.013 -74.5755 483.984 -73.8622 483.309L-74.6293 481.346C-75.356 481.361 -76.796 482.05 -77.5226 482.065C-77.4957 483.383 -76.7556 484.028 -76.7421 484.687ZM-103.2 435.093C-103.2 435.093 -102.5 433.759 -102.513 433.1C-103.24 433.115 -104.707 432.485 -105.433 432.5C-105.433 432.5 -106.133 433.833 -106.12 434.493C-104.653 435.123 -103.926 435.108 -103.2 435.093ZM-214.022 383.922C-216.928 383.981 -219.109 384.026 -220.562 384.055C-219.068 386.004 -216.134 387.263 -214.022 383.922ZM97.5317 332.046C97.5047 330.727 98.2045 329.394 98.1776 328.075C98.1641 327.416 97.4239 326.771 96.6973 326.786C96.6973 326.786 95.9706 326.801 95.9841 327.46C95.9841 327.46 95.2708 328.134 95.9975 328.12C96.0245 329.438 96.778 330.742 97.5317 332.046ZM-110.05 206.329L-108.623 204.98C-108.636 204.321 -109.39 203.017 -110.13 202.372C-110.843 203.047 -112.283 203.736 -113.723 204.425C-112.243 205.714 -111.503 206.358 -110.05 206.329ZM672.717 623.093C673.443 623.078 673.443 623.078 674.17 623.063C674.156 622.404 673.43 622.419 673.416 621.76C673.416 621.76 672.69 621.774 671.976 622.449C672.703 622.434 672.703 622.434 672.717 623.093ZM664.682 621.278C663.956 621.293 663.229 621.308 662.502 621.323C662.516 621.982 663.256 622.627 663.256 622.627C663.983 622.612 664.709 622.597 665.423 621.923C665.423 621.923 665.409 621.263 664.682 621.278ZM620.367 622.842C621.094 622.827 621.82 622.813 622.561 623.457L621.82 622.813C621.094 622.827 621.094 622.827 620.367 622.842ZM-110.224 482.732C-110.211 483.392 -110.197 484.051 -110.184 484.71C-109.471 484.036 -108.744 484.021 -108.031 483.347C-108.031 483.347 -108.784 482.043 -108.798 481.384C-108.784 482.043 -110.238 482.073 -110.224 482.732ZM-77.9804 317.158C-77.2537 317.143 -76.5135 317.787 -75.8003 317.113C-75.0735 317.098 -75.1004 315.78 -75.1004 315.78C-75.8271 315.794 -76.5539 315.809 -77.2805 315.824C-78.0073 315.839 -77.9939 316.498 -77.9804 317.158ZM-141.957 317.144C-141.944 317.804 -141.203 318.448 -141.19 319.108C-140.463 319.093 -139.737 319.078 -139.023 318.404C-139.037 317.744 -139.777 317.1 -139.79 316.44C-140.517 316.455 -141.23 317.129 -141.957 317.144ZM1066.83 163.838C1066.83 163.838 1067.56 163.823 1067.54 163.164C1066.8 162.52 1066.8 162.519 1066.06 161.875L1065.35 162.549C1066.82 163.179 1066.83 163.838 1066.83 163.838ZM-142.051 205.663L-142.065 205.003L-142.791 205.018L-142.051 205.663ZM-88.9886 205.239C-88.262 205.224 -87.5353 205.21 -87.5353 205.21C-87.5353 205.21 -87.5486 204.55 -88.2754 204.565L-89.0021 204.58C-89.0021 204.58 -89.0021 204.58 -88.9886 205.239ZM112.335 95.5839L112.321 94.9245L111.594 94.9393L112.335 95.5839ZM-134.65 318.974C-134.663 318.315 -133.936 318.3 -133.95 317.64L-134.677 317.655C-134.663 318.315 -134.663 318.315 -134.65 318.974ZM1031.38 314.965L1032.12 315.61L1032.11 314.951L1031.38 314.965ZM699.927 602.748C699.941 603.407 700.695 604.711 700.708 605.371C701.421 604.696 701.421 604.696 702.134 604.022C701.408 604.037 700.681 604.052 699.927 602.748ZM639.907 618.485C640.634 618.471 641.347 617.796 642.074 617.782L641.334 617.137C640.607 617.152 639.894 617.826 639.167 617.841C639.181 618.5 639.907 618.485 639.907 618.485ZM586.199 622.88L585.472 622.895L585.485 623.554L586.199 622.88ZM183.202 255.096C183.915 254.422 184.615 253.088 184.601 252.429C184.588 251.769 183.121 251.139 182.381 250.495C181.668 251.169 180.954 251.843 180.255 253.177C181.721 253.807 182.462 254.451 183.202 255.096Z" fill="#0E1521"/>
    </svg>
    