<svg width="146" height="50" viewBox="0 0 146 50" fill="none" xmlns="http://www.w3.org/2000/svg">
    <path d="M0.213915 11.8912C-0.67474 7.94112 1.25429 3.96982 5.09068 2.46201C7.40985 1.54882 10.6827 1.23027 13.1753 1.23027C19.3308 1.20903 24.446 0.826768 29.7996 2.67438C33.8961 4.07601 37.4941 6.79433 40.0083 10.2559C43.9314 15.6501 45.1452 22.8706 43.1945 29.2205C41.9807 33.1917 39.4014 36.9719 36.1286 39.6477C32.7907 42.3661 28.6726 44.0013 24.3593 44.4897C22.1485 44.7446 19.8944 44.7658 17.6836 44.6172C17.6402 44.6172 17.5752 44.6172 17.5319 44.6172C16.925 44.5747 16.2531 44.4685 15.9279 43.9801C15.7329 43.6828 15.7112 43.3005 15.7112 42.9395C15.6895 41.2193 15.6895 39.4991 15.7329 37.7577C15.7329 37.3754 15.7545 36.9931 15.9279 36.6534C16.4048 35.6765 17.7919 35.634 18.8973 35.6977C23.1456 35.9313 27.6322 35.2942 30.905 32.4272C31.0568 32.2998 31.2085 32.1511 31.3385 32.0237C33.8094 29.6452 35.3266 26.2898 35.305 22.8919C35.2616 17.6676 31.5769 12.6769 26.5268 10.9992C23.5357 10.0011 20.3062 10.1073 17.1634 10.1497C11.4413 10.171 5.58919 10.0223 0.213915 11.8912C0.213915 11.9124 0.213915 11.9124 0.213915 11.8912Z" fill="#B8DD00"/>
    <path d="M28.4338 22.7861C28.4338 26.8635 25.0743 30.1765 20.9561 30.1552C16.903 30.1128 13.4351 26.6724 13.4784 22.7223C13.5218 18.7935 16.9247 15.5018 20.9561 15.4806C25.1393 15.4593 28.4338 18.6661 28.4338 22.7861Z" fill="#B8DD00"/>
    <path d="M8.99148 16.3313C8.99148 16.3313 8.99148 49.8855 8.99148 49.9492C8.99148 50.2253 5.54523 49.3333 5.35016 49.2484C2.68419 48.1653 0.299995 45.2559 0.27832 42.3464C0.27832 38.184 0.343344 34.0428 0.343344 29.8804C0.343344 28.6699 0.343344 27.4594 0.365018 26.2701C0.365018 23.8279 0.451716 21.959 1.94726 19.9415C2.64084 19.0071 3.5295 18.2213 4.5482 17.6479C4.93834 17.4356 8.99148 16.0339 8.99148 16.3313Z" fill="#B8DD00"/>
    <path d="M82.4245 17.0095V19.1332H73.8848V12.5498H77.8729C80.3871 12.5498 82.4245 14.5461 82.4245 17.0095Z" fill="#B8DD00"/>
    <path d="M82.4245 25.5469V49.9693H73.8848V21.3633H78.1546C80.4955 21.3633 82.4245 23.2321 82.4245 25.5469Z" fill="#B8DD00"/>
    <path d="M145.456 14.0799V16.4159H134.879V9.62012H140.904C143.419 9.62012 145.456 11.6164 145.456 14.0799Z" fill="#B8DD00"/>
    <path d="M145.458 46.3388V49.9703H134.577C131.456 49.9703 129.05 49.1421 127.338 47.5069C125.626 45.8716 124.78 43.4931 124.78 40.3713V0H133.688V40.5412C133.688 41.1995 133.84 41.6243 134.144 41.8154C134.447 42.0278 134.924 42.1339 135.574 42.1339H141.188C143.529 42.1339 145.458 44.024 145.458 46.3388Z" fill="#B8DD00"/>
    <path d="M117.388 9.62012H123.457V16.4159H121.939C119.425 16.4159 117.388 14.4196 117.388 11.9562V9.62012Z" fill="#B8DD00"/>
    <path d="M91.4179 25.3583V28.289H85.5225V24.1266C85.5225 22.0666 87.2131 20.4102 89.3155 20.4102H95.1893C93.0652 20.8561 91.4179 23.2984 91.4179 25.3583Z" fill="#B8DD00"/>
    <path d="M116.929 25.4433V49.9931H112.919C112.854 49.9931 112.767 49.9931 112.702 49.9931H108.801V42.0505H108.823V28.3527H100.781V39.4809V49.9931H96.9233C96.8583 49.9931 96.7716 49.9931 96.7066 49.9931H92.6968V25.4433C92.6968 23.1497 95.276 20.4102 97.5952 20.4102H112.03C114.371 20.4102 116.929 23.1497 116.929 25.4433Z" fill="#B8DD00"/>
    <path d="M66.4944 49.9963H51.2572C48.9597 49.9963 47.0957 48.1274 47.0957 45.8339V24.597C47.0957 22.3034 48.9597 20.4346 51.2572 20.4346H66.4944C68.7919 20.4346 70.6559 22.3034 70.6559 24.597V45.8339C70.6559 48.1274 68.7919 49.9963 66.4944 49.9963ZM54.5084 42.5421H63.2215V27.8462H54.5084V42.5421Z" fill="#B8DD00"/>
    </svg>
    