<svg width="269" height="102" viewBox="0 0 269 102" fill="none" xmlns="http://www.w3.org/2000/svg">
    <path d="M264.933 57.9186C265.234 58.2405 264.203 58.5823 264.948 58.8976C264.948 58.8976 265.099 59.1129 264.951 59.1151C264.216 59.4525 264.22 59.6701 264.819 60.2051C265.27 60.6336 265.128 61.071 264.54 61.2974C263.657 61.6369 262.774 61.9765 262.043 62.5315C261.75 62.7534 261.16 62.8711 260.718 62.9864C258.65 63.2349 256.433 63.3768 254.216 63.5187C252.886 63.6473 251.407 63.6694 250.077 63.7981C248.304 63.9334 246.982 64.6059 246.261 65.8135C245.682 66.6926 244.954 67.4651 244.375 68.3441C243.939 68.8947 243.65 69.3342 243.51 69.8803C243.369 70.3176 243.377 70.8615 243.237 71.4076C242.814 72.8284 242.832 74.025 245.061 74.6445C245.209 74.6423 245.214 74.9686 245.363 75.0752C244.64 76.1741 243.154 75.761 242.125 76.2116C241.697 77.306 242.307 78.4937 242.323 79.5815C242.326 79.7991 242.626 80.0122 242.777 80.2276C244.124 81.2955 244.588 82.5942 244.61 84.1172C244.63 85.4225 244.943 86.6147 245.701 87.8002C246.462 89.2033 246.333 90.5109 245.465 91.8295C245.176 92.269 244.735 92.4932 243.996 92.5042C241.481 92.5417 238.965 92.4705 236.45 92.508C235.71 92.5191 234.821 92.4235 234.238 92.9763C233.799 93.3092 233.207 93.3181 232.615 93.3269C227.139 93.191 221.516 93.1661 216.04 93.0302C211.157 92.9943 206.124 92.8518 201.241 92.8159C196.358 92.78 191.623 92.7418 186.738 92.5971C185.111 92.6214 183.48 92.4281 181.853 92.4524C174.01 92.3519 166.167 92.2513 158.179 92.3706C154.037 92.4324 149.898 92.7117 145.755 92.6648C141.909 92.7222 138.216 93.1037 134.37 93.1611C126.531 93.3869 118.841 93.6105 111.003 93.8363C103.756 94.0532 96.5125 94.4877 89.2675 94.8135C84.2397 94.9973 79.212 95.1811 74.1809 95.1474C67.2285 95.2512 60.1249 95.1396 53.1709 95.1346C49.3233 95.0832 45.3293 95.1428 41.4817 95.0914C40.5941 95.1047 39.705 95.0091 38.9654 95.0202C37.7803 94.9291 36.8863 94.5072 35.989 93.8678C35.6899 93.6546 35.5388 93.4393 35.5355 93.2217C35.5242 92.4603 35.0706 91.8142 34.6171 91.1681C34.1652 90.6309 34.3018 89.8672 34.8838 89.2057C35.6136 88.542 36.1956 87.8805 36.7759 87.1102C36.9206 86.8904 36.7678 86.5663 36.7629 86.24C38.0861 85.6762 38.0861 85.6762 39.3963 84.2422C39.2484 84.2444 38.9509 84.14 38.8014 84.0335C38.5039 83.9291 38.356 83.9313 37.9106 83.8291C39.2273 82.8303 40.5521 82.3753 42.3272 82.3488C44.8419 82.3112 47.3566 82.2737 49.8697 82.1274C50.3135 82.1208 50.6077 82.0076 51.0482 81.7834C47.6395 81.3991 44.2405 81.6674 40.835 81.5006C40.5326 81.0699 40.8252 80.8479 41.269 80.8413C43.3351 80.4841 45.4011 80.1268 47.4721 80.0959C47.9061 79.4366 47.4591 79.2257 47.0137 79.1235C46.2724 79.0258 45.6791 78.9258 44.9395 78.9369C42.5711 78.8634 40.0531 78.6834 37.6896 78.9363C35.9162 79.0716 33.9948 79.209 32.2197 79.2355C31.628 79.2443 31.0347 79.1444 30.443 79.1532C30.1471 79.1577 29.7001 78.9467 29.4043 78.9511C27.9299 79.2995 26.7352 78.5558 25.5453 78.1383C24.3554 77.7208 23.7507 76.8594 23.8856 75.987C24.3018 74.1311 22.8015 72.7391 21.8912 71.2294C21.5889 70.7987 21.1418 70.5877 20.6932 70.268C20.2446 69.9483 19.648 69.6308 19.0514 69.3133C17.1089 68.0367 14.7324 67.4193 12.2161 67.3481C11.6244 67.3569 11.0311 67.2569 10.4378 67.157C8.21079 66.6462 7.00954 65.4673 7.27941 63.7224C7.41435 62.85 7.10714 62.0929 6.7983 61.2271C8.11013 59.9019 7.93786 58.2724 8.3589 56.7429C8.50195 56.4143 7.75746 56.099 8.34429 55.7638C9.22371 55.2067 8.77345 54.7782 8.17364 54.2431C8.60767 53.5838 9.63339 52.9157 8.58494 52.0609C8.58331 51.9521 8.58169 51.8434 8.58007 51.7346C9.1604 50.9643 8.55896 50.3205 8.10707 49.7832C7.65518 49.2459 7.057 48.8196 7.19193 47.9472C7.78038 47.7208 8.36883 47.4944 8.95727 47.268C9.69202 46.9306 9.68553 46.4955 9.38156 45.956C8.92805 45.31 8.60136 43.2476 8.88909 42.6993C9.46779 41.8202 9.45481 40.95 9.58812 39.9687C9.57675 39.2073 10.1571 38.437 9.55403 37.6844C9.25818 37.6888 8.96071 37.5844 8.51694 37.5911C8.51531 37.4823 8.51369 37.3735 8.51207 37.2647C8.7933 36.2813 10.1165 35.7175 10.692 34.6209C10.3912 34.299 10.0889 33.8683 9.78656 33.4376C9.93123 33.2178 10.3718 32.9936 10.3669 32.6673C10.3523 31.6883 10.1914 30.8202 10.1768 29.8412C10.167 29.1885 10.3101 28.86 11.1911 28.4116C12.9532 27.5149 13.0719 25.5547 11.8707 24.3758C11.4204 23.9473 11.1197 23.6253 10.2289 23.421C11.1116 23.0814 12.1438 22.8484 11.9829 21.9804C11.9812 21.8716 11.9796 21.7628 12.1259 21.6519C12.4185 21.4299 13.1549 21.2013 13.15 20.8749C13.1387 20.1135 13.1273 19.352 12.8217 18.7038C12.3633 17.7314 12.4999 16.9677 13.8231 16.4039C15.2926 15.7292 15.5689 14.4194 16.1444 13.3228C16.4305 12.6657 15.9754 11.9109 15.8145 11.0428C16.2534 10.7099 16.6906 10.2681 17.1312 10.044C17.5717 9.81978 18.1601 9.59339 18.7486 9.367C21.8436 8.55918 24.9451 8.18648 28.1995 8.13791C32.4876 7.96511 36.9253 7.89888 41.2135 7.72608C46.0933 7.54444 51.1195 7.25182 55.9994 7.07019C58.2182 7.03707 60.2891 7.00617 62.5096 7.08183C68.4266 6.99352 74.3451 7.01399 80.1142 6.92789C81.5934 6.90582 83.2238 7.09909 84.7047 7.18579C86.1839 7.16372 87.8094 7.03065 89.2887 7.00857C90.0283 6.99754 90.9142 6.87551 91.6538 6.86447C94.3181 6.93351 96.9791 6.78499 99.6385 6.5277C100.524 6.40567 101.561 6.499 102.449 6.48575C103.189 6.47471 103.782 6.57466 104.38 7.00095C104.829 7.32066 105.422 7.42061 106.014 7.41178C108.676 7.37204 111.339 7.3323 114.003 7.40135C114.447 7.39472 114.892 7.49688 115.335 7.38148C117.108 7.2462 118.738 7.43948 120.231 8.28764C121.126 8.81829 122.308 8.69185 123.493 8.78297C123.937 8.77634 124.379 8.66094 124.683 9.20042C124.834 9.41577 125.575 9.51351 126.018 9.39811C129.563 9.01879 132.972 9.40313 136.232 9.78968C137.27 9.883 138.303 9.75877 139.349 10.396C138.316 10.629 137.58 10.8576 136.696 11.0884C136.418 12.2894 138.331 11.608 138.489 12.2585C138.342 12.3695 138.196 12.4805 138.196 12.4805C135.979 12.6224 133.913 12.9796 131.848 13.4456C131.112 13.6742 130.076 13.6897 129.337 13.7007C128.303 13.825 127.269 13.9492 126.689 14.7195C126.11 15.5985 126.269 16.3578 127.316 17.1038C129.389 17.1817 131.609 17.2573 133.83 17.333C139.157 17.3623 144.482 17.2828 149.955 17.2011C156.316 17.1062 162.527 16.9047 168.888 16.8098C170.515 16.7855 172.142 16.7612 173.771 16.8457C180.726 16.9595 187.828 16.9623 194.784 17.0761C199.371 17.1164 203.96 17.2656 208.549 17.4147C212.84 17.4594 216.984 17.5064 221.275 17.5512C222.015 17.5401 222.608 17.6401 223.203 17.8488C223.946 18.0553 224.686 18.0443 225.427 18.142C228.685 18.311 231.94 18.3712 235.198 18.5402C237.714 18.6115 240.088 19.0113 242.464 19.6286C242.762 19.733 243.059 19.8373 243.503 19.8307C244.688 19.9218 245.875 20.1217 246.772 20.7612C247.071 20.9743 247.81 20.9633 248.256 21.0654C248.851 21.2741 249.299 21.5939 250.044 21.9092C249.174 23.119 249.044 24.3178 249.948 25.3923C249.512 25.9428 249.073 26.2758 248.784 26.7153C248.496 27.2636 248.21 27.9207 248.812 28.5646C249.111 28.7777 249.264 29.1019 249.268 29.4282C249.278 30.0809 249.875 30.3984 250.619 30.7137C250.769 30.8202 250.92 31.0356 251.217 31.14C250.928 31.5795 250.639 32.019 250.349 32.4586C250.063 33.1156 250.218 33.5486 250.964 33.9726C251.56 34.2901 252.303 34.4967 253.046 34.7032C254.533 35.225 255.145 36.5215 254.124 37.516C253.686 37.9577 253.248 38.2907 252.958 38.7302C252.523 39.2808 252.384 39.9356 252.097 40.484C253.293 41.3365 254.767 40.9881 255.952 41.0792C256.255 41.5099 255.962 41.7319 255.668 41.8451C255.079 42.0715 254.639 42.2957 254.795 42.8374C254.945 42.9439 254.946 43.0527 255.094 43.0505C255.539 43.1527 256.13 43.0351 256.139 43.6877C256.144 44.0141 255.852 44.236 255.411 44.4602C254.969 44.5756 254.379 44.6932 254.387 45.2371C254.393 45.6723 254.693 45.8854 255.287 46.0941C257.81 46.6005 258.277 48.1168 258.745 49.7418C258.898 50.066 258.756 50.5033 258.761 50.8296C258.771 51.4823 258.782 52.2438 258.787 52.5701C259.834 53.3161 260.434 53.8512 261.182 54.384C262.677 55.4498 264.311 55.8606 266.373 55.2858C266.964 55.1682 267.554 55.0506 268.144 54.933C268.292 54.9307 268.439 54.9285 268.737 55.0329C267.854 55.3725 266.972 55.7121 266.237 56.0495C265.65 56.3846 265.211 56.7176 264.624 57.0528C264.779 57.4857 264.93 57.701 264.933 57.9186ZM57.1179 82.0192C57.1163 81.9105 57.1163 81.9105 57.1147 81.8017C56.2272 81.8149 55.3412 81.9369 54.3058 81.9524C54.3074 82.0612 54.3074 82.0612 54.309 82.17C55.1949 82.0479 56.2304 82.0325 57.1179 82.0192ZM52.3811 81.8723L52.5274 81.7613L52.3779 81.6548L52.3811 81.8723ZM59.3352 81.8773L59.1872 81.8795L59.1889 81.9883C59.0393 81.8818 59.1889 81.9883 59.3352 81.8773C59.1872 81.8795 59.1872 81.8795 59.3352 81.8773ZM50.5767 0.622898C50.4288 0.625106 50.2809 0.627313 50.1329 0.629521C50.2825 0.736093 50.2841 0.844872 50.2841 0.844872C50.432 0.842665 50.5783 0.731678 50.7262 0.72947C50.7262 0.72947 50.7246 0.62069 50.5767 0.622898ZM98.0843 100.666C98.0843 100.666 97.938 100.777 97.9396 100.886C97.9412 100.995 98.0924 101.21 98.0908 101.101C98.2387 101.099 98.385 100.988 98.8272 100.873C98.3834 100.879 98.2339 100.773 98.0843 100.666ZM264.933 57.9186C265.229 57.9142 265.673 57.9075 265.969 57.9031L265.967 57.7943C265.671 57.7988 265.229 57.9142 264.933 57.9186ZM1.36247 63.8107L1.50877 63.6997C1.35922 63.5932 1.35922 63.5932 1.2113 63.5954C1.06337 63.5976 1.065 63.7064 0.918697 63.8173C1.065 63.7064 1.21454 63.8129 1.36247 63.8107Z" fill="#B8DD00"/>
    </svg>
    