<svg width="449" height="130" viewBox="0 0 449 130" fill="none" xmlns="http://www.w3.org/2000/svg">
    <g clip-path="url(#clip0_1_3946)">
    <path d="M439.862 61.0601C440.37 61.3552 438.684 61.7882 439.923 62.0373C439.923 62.0373 440.181 62.2391 439.937 62.2545C438.738 62.6568 438.752 62.874 439.761 63.3556C440.52 63.7439 440.303 64.1935 439.342 64.472C437.899 64.8896 436.457 65.3073 435.272 65.9268C434.798 66.1746 433.829 66.3444 433.105 66.4989C429.705 66.9306 426.054 67.269 422.404 67.6073C420.216 67.8538 417.778 68.007 415.59 68.2534C412.671 68.5459 410.518 69.3352 409.374 70.6062C408.453 71.5361 407.282 72.3727 406.361 73.3026C405.664 73.8914 405.203 74.3564 404.994 74.9146C404.777 75.3642 404.811 75.9071 404.601 76.4653C403.959 77.9228 404.034 79.1171 407.732 79.5388C407.976 79.5235 407.996 79.8492 408.247 79.9425C407.096 81.1049 404.631 80.8237 402.951 81.3653C402.288 82.497 403.338 83.6301 403.406 84.7159C403.42 84.933 403.921 85.1195 404.179 85.3214C406.441 86.2693 407.255 87.5262 407.35 89.0463C407.432 90.3493 407.995 91.513 409.289 92.6307C410.597 93.9656 410.435 95.2839 409.054 96.6787C408.593 97.1437 407.876 97.4068 406.656 97.4834C402.511 97.7438 398.36 97.8957 394.215 98.1561C392.996 98.2327 391.526 98.2161 390.585 98.8202C389.874 99.1919 388.898 99.2532 387.923 99.3145C378.888 99.6642 369.616 100.138 360.581 100.487C352.528 100.884 344.224 101.188 336.171 101.585C328.118 101.982 320.309 102.364 312.249 102.652C309.567 102.821 306.872 102.772 304.19 102.941C291.253 103.535 278.317 104.13 265.151 104.957C258.324 105.386 251.51 106.032 244.677 106.353C238.337 106.751 232.262 107.46 225.923 107.858C213.007 108.779 200.335 109.684 187.419 110.604C175.479 111.464 163.552 112.54 151.618 113.508C143.335 114.137 135.052 114.767 126.755 115.179C115.296 115.899 103.578 116.417 92.112 117.029C85.7658 117.319 79.1826 117.732 72.8364 118.022C71.3734 118.114 69.9037 118.097 68.6846 118.174C66.7272 118.188 65.2369 117.845 63.7331 117.286C63.2318 117.099 62.9743 116.898 62.9607 116.68C62.9129 115.92 62.1405 115.315 61.3681 114.709C60.6025 114.212 60.7986 113.437 61.733 112.724C62.9111 111.996 63.8455 111.283 64.773 110.462C65.0032 110.23 64.7389 109.919 64.7185 109.594C66.8787 108.913 66.8787 108.913 68.9845 107.363C68.7406 107.379 68.2462 107.301 67.9955 107.207C67.5011 107.13 67.2572 107.145 66.5189 107.082C68.6519 105.967 70.819 105.395 73.7449 105.211C77.8899 104.951 82.0349 104.69 86.173 104.321C86.9045 104.275 87.3853 104.136 88.1032 103.873C82.4679 103.791 76.8737 104.361 71.2521 104.496C70.7372 104.092 71.2112 103.844 71.9427 103.798C75.3357 103.258 78.7287 102.718 82.1423 102.503C82.8328 101.806 82.0877 101.635 81.3494 101.572C80.1235 101.54 79.1413 101.493 77.9222 101.57C74.0143 101.706 69.8556 101.749 65.9681 102.212C63.0491 102.504 59.8862 102.812 56.9603 102.996C55.985 103.057 55.0029 103.01 54.0276 103.071C53.54 103.101 52.7949 102.93 52.3072 102.961C49.8895 103.44 47.8912 102.802 45.9133 102.491C43.9354 102.179 42.9056 101.372 43.0948 100.488C43.7103 98.5958 41.1834 97.3375 39.6249 95.9093C39.11 95.5057 38.3649 95.3345 37.613 95.0547C36.861 94.7749 35.8653 94.5105 34.8695 94.246C31.618 93.1423 27.6759 92.7359 23.5241 92.8878C22.5488 92.949 21.5667 92.9017 20.5846 92.8545C16.8931 92.5414 14.8675 91.4696 15.246 89.7017C15.4352 88.8178 14.8998 88.0883 14.3576 87.2504C16.4701 85.8096 16.124 84.1962 16.7599 82.6302C16.9833 82.2891 15.7437 82.04 16.6985 81.653C18.1274 81.0182 17.3686 80.6298 16.3592 80.1482C17.0497 79.4508 18.7156 78.6921 16.9542 77.9307C16.9474 77.8221 16.9406 77.7136 16.9338 77.605C17.8613 76.7837 16.8451 76.1935 16.0795 75.6965C15.3139 75.1996 14.3113 74.8266 14.5006 73.9426C15.4622 73.6642 16.4239 73.3858 17.3855 73.1073C18.5842 72.705 18.5569 72.2707 18.0351 71.7584C17.2627 71.1529 16.6455 69.1206 17.099 68.5471C18.0197 67.6172 17.9651 66.7486 18.1475 65.756C18.0998 64.996 19.0273 64.1747 18.0043 63.4759C17.5166 63.5066 17.0222 63.4286 16.2907 63.4746C16.2839 63.366 16.2771 63.2574 16.2702 63.1489C16.6965 62.141 18.8568 61.4603 19.7638 60.3132C19.2557 60.0181 18.7408 59.6144 18.2259 59.2108C18.456 58.9783 19.1739 58.7152 19.1534 58.3894C19.092 57.4122 18.7936 56.5589 18.7322 55.5817C18.6913 54.9303 18.9146 54.5892 20.3503 54.063C23.2216 53.0105 23.3426 51.0408 21.317 49.969C20.5582 49.5807 20.0501 49.2856 18.5735 49.1604C20.016 48.7427 21.7091 48.4183 21.4107 47.565C21.4039 47.4564 21.3971 47.3479 21.6341 47.224C22.1081 46.9762 23.3135 46.6824 23.2931 46.3567C23.2453 45.5966 23.1975 44.8366 22.669 44.2158C21.8761 43.2845 22.0722 42.5092 24.2325 41.8284C26.6297 41.0237 27.0355 39.6902 27.9426 38.5431C28.3893 37.861 27.6101 37.1469 27.3117 36.2936C28.0227 35.9219 28.7269 35.4417 29.4447 35.1786C30.1625 34.9154 31.1242 34.637 32.0858 34.3586C37.1583 33.2768 42.2581 32.6294 47.6222 32.2923C54.6862 31.7395 62.0009 31.2799 69.0649 30.727C77.1042 30.1129 85.3806 29.3749 93.4199 28.7607C97.0772 28.5309 100.491 28.3165 104.155 28.1952C113.908 27.5824 123.667 27.0782 133.177 26.4807C135.615 26.3275 138.31 26.3762 140.756 26.3316C143.194 26.1784 145.869 25.9013 148.307 25.7481C149.526 25.6715 150.982 25.471 152.202 25.3944C156.597 25.2272 160.979 24.8429 165.354 24.3499C166.81 24.1495 168.524 24.1508 169.987 24.0589C171.206 23.9823 172.188 24.0296 173.191 24.4026C173.943 24.6824 174.925 24.7297 175.9 24.6684C180.289 24.3926 184.678 24.1169 189.073 23.9497C189.805 23.9037 190.543 23.9664 191.268 23.8118C194.187 23.5194 196.882 23.568 199.375 24.2835C200.872 24.7344 202.816 24.5033 204.773 24.4893C205.505 24.4434 206.23 24.2888 206.751 24.8011C207.009 25.0029 208.235 25.0349 208.959 24.8803C214.791 24.1869 220.426 24.2689 225.817 24.3662C227.531 24.3675 229.231 24.1517 230.978 24.6959C229.285 25.0203 228.08 25.3141 226.631 25.6231C226.218 26.8481 229.347 25.9975 229.631 26.6336C229.394 26.7575 229.157 26.8814 229.157 26.8814C225.507 27.2198 222.114 27.76 218.728 28.4088C217.522 28.7026 215.815 28.8098 214.596 28.8864C212.896 29.1022 211.196 29.318 210.269 30.1394C209.348 31.0693 209.64 31.814 211.394 32.4668C214.815 32.3609 218.479 32.2397 222.143 32.1184C230.927 31.6755 239.705 31.124 248.726 30.5572C259.211 29.8984 269.444 29.1464 279.929 28.4876C282.611 28.3191 285.293 28.1506 287.982 28.0907C299.455 27.5878 311.165 26.961 322.639 26.4581C330.204 26.0918 337.776 25.834 345.348 25.5763C352.426 25.2406 359.26 24.9202 366.337 24.5845C367.557 24.5079 368.539 24.5552 369.528 24.7111C370.76 24.8516 371.979 24.775 373.205 24.807C378.583 24.6871 383.954 24.4587 389.332 24.3388C393.484 24.1869 397.412 24.3761 401.354 24.7825C401.849 24.8604 402.343 24.9383 403.075 24.8924C405.032 24.8784 406.996 24.973 408.5 25.5325C409.001 25.719 410.22 25.6424 410.959 25.7051C411.948 25.8609 412.7 26.1407 413.939 26.3898C412.551 27.6761 412.382 28.8858 413.914 29.8796C413.216 30.4685 412.505 30.8402 412.045 31.3051C411.591 31.8787 411.145 32.5608 412.161 33.151C412.662 33.3375 412.926 33.6479 412.947 33.9736C412.988 34.6251 413.984 34.8895 415.223 35.1387C415.474 35.2319 415.731 35.4338 416.226 35.5117C415.765 35.9766 415.305 36.4416 414.845 36.9065C414.398 37.5886 414.669 38.0076 415.916 38.3653C416.911 38.6298 418.144 38.7704 419.377 38.9109C421.849 39.3006 422.906 40.5422 421.261 41.6267C420.557 42.107 419.846 42.4786 419.385 42.9436C418.688 43.5324 418.485 44.1992 418.032 44.7728C420.037 45.5188 422.455 45.0399 424.412 45.0259C424.927 45.4296 424.453 45.6774 423.972 45.8166C423.01 46.095 422.293 46.3581 422.571 46.8857C422.821 46.979 422.828 47.0875 423.072 47.0722C423.81 47.1348 424.779 46.965 424.819 47.6164C424.84 47.9422 424.366 48.19 423.648 48.4531C422.923 48.6076 421.955 48.7775 421.989 49.3204C422.016 49.7547 422.518 49.9412 423.507 50.0971C427.686 50.3795 428.513 51.8536 429.346 53.4363C429.611 53.7468 429.394 54.1964 429.415 54.5221C429.456 55.1736 429.503 55.9336 429.524 56.2594C431.278 56.9122 432.288 57.3938 433.541 57.8601C436.047 58.7926 438.757 59.0584 442.136 58.3011C443.105 58.1312 444.073 57.9613 445.042 57.7915C445.285 57.7762 445.529 57.7608 446.024 57.8388C444.581 58.2564 443.139 58.6741 441.94 59.0764C440.985 59.4634 440.274 59.8351 439.319 60.2221C439.591 60.6411 439.848 60.843 439.862 61.0601ZM98.1203 103.571C98.1135 103.462 98.1135 103.462 98.1067 103.353C96.6438 103.445 95.1876 103.646 93.4809 103.753C93.4877 103.862 93.4877 103.862 93.4945 103.97C94.9506 103.77 96.6574 103.663 98.1203 103.571ZM90.3044 103.844L90.5414 103.72L90.2907 103.627L90.3044 103.844ZM101.771 103.232L101.527 103.248L101.534 103.356C101.283 103.263 101.534 103.356 101.771 103.232C101.527 103.248 101.527 103.248 101.771 103.232ZM84.2329 22.7976C83.9891 22.8129 83.7453 22.8282 83.5015 22.8436C83.7521 22.9368 83.7589 23.0454 83.7589 23.0454C84.0028 23.0301 84.2398 22.9062 84.4836 22.8909C84.4836 22.8909 84.4768 22.7823 84.2329 22.7976ZM166.379 118.576C166.379 118.576 166.142 118.7 166.149 118.808C166.156 118.917 166.413 119.119 166.406 119.01C166.65 118.995 166.887 118.871 167.612 118.716C166.88 118.762 166.63 118.669 166.379 118.576ZM439.862 61.0601C440.349 61.0295 441.081 60.9835 441.568 60.9529L441.562 60.8443C441.074 60.8749 440.349 61.0295 439.862 61.0601ZM5.49308 90.3145L5.73008 90.1906C5.47944 90.0973 5.47944 90.0973 5.23561 90.1127C4.99179 90.128 4.99861 90.2366 4.76161 90.3604C4.99861 90.2366 5.24926 90.3298 5.49308 90.3145Z" fill="#B8DD00"/>
    </g>
    <defs>
    <clipPath id="clip0_1_3946">
    <rect width="442.677" height="101.285" fill="white" transform="translate(0.845703 28.0371) rotate(-3.59528)"/>
    </clipPath>
    </defs>
    </svg>
    