<svg width="28" height="34" viewBox="0 0 28 34" fill="none" xmlns="http://www.w3.org/2000/svg">
    <path d="M23.1705 17.723C23.1318 13.5331 26.6891 11.4947 26.8518 11.3998C24.8371 8.53594 21.7145 8.14464 20.6171 8.11344C17.9945 7.84434 15.4505 9.64354 14.1145 9.64354C12.7518 9.64354 10.6945 8.13944 8.47713 8.18364C5.62379 8.22654 2.95446 9.83724 1.49046 12.3384C-1.53088 17.4383 0.722459 24.9328 3.61713 29.0551C5.06513 31.074 6.75712 33.3282 8.97179 33.2489C11.1385 33.1618 11.9478 31.9021 14.5625 31.9021C17.1531 31.9021 17.9131 33.2489 20.1718 33.1982C22.4971 33.1618 23.9611 31.1702 25.3585 29.1331C27.0318 26.8191 27.7038 24.5402 27.7305 24.4232C27.6758 24.405 23.2145 22.7449 23.1705 17.723Z" fill="white"/>
    <path d="M18.9038 5.40164C20.0691 3.98074 20.8665 2.04764 20.6451 0.0859375C18.9585 0.158737 16.8491 1.22344 15.6345 2.61314C14.5598 3.83774 13.5998 5.84494 13.8478 7.73254C15.7425 7.87034 17.6878 6.80044 18.9038 5.40164Z" fill="white"/>
    </svg>
    