<svg width="21" height="28" viewBox="0 0 21 28" fill="none" xmlns="http://www.w3.org/2000/svg">
    <path d="M20.7869 19.9299C20.2187 21.3191 19.9467 21.9379 19.2153 23.1651C18.1944 24.8784 16.7562 27.0112 14.9741 27.0295C13.3896 27.0459 12.9831 25.893 10.834 25.9059C8.68443 25.9187 8.23565 27.0496 6.65127 27.0341C4.86908 27.0152 3.50579 25.0892 2.48486 23.3767C-0.369215 18.5863 -0.667564 12.9647 1.09293 9.97627C2.34382 7.85254 4.31673 6.60962 6.17269 6.60962C8.06189 6.60962 9.24901 7.7519 10.8112 7.7519C12.3266 7.7519 13.2498 6.60742 15.4339 6.60742C17.085 6.60742 18.8344 7.59854 20.0807 9.3124C15.9968 11.7798 16.6603 18.211 20.7869 19.9299Z" fill="#00111A"/>
    <path d="M13.7771 4.69443C14.5705 3.57236 15.1732 1.98608 14.9549 0.365234C13.659 0.463232 12.1417 1.37275 11.2566 2.55811C10.4533 3.63418 9.78973 5.23086 10.0478 6.78154C11.4631 6.83018 12.927 5.89824 13.7771 4.69443Z" fill="#00111A"/>
    </svg>
    