<svg width="72" height="55" viewBox="0 0 72 55" fill="none" xmlns="http://www.w3.org/2000/svg">
    <path d="M9.87598 32.285L23.1136 39.5055C24.1666 40.1072 25.5204 39.9568 26.423 39.2047L28.529 37.3996C29.7324 36.3466 29.7324 34.391 28.6794 33.338L24.1666 28.8252" stroke="#181D27" stroke-width="2" stroke-miterlimit="10" stroke-linecap="round" stroke-linejoin="round"/>
    <path d="M29.2821 34.0931L32.1402 31.6862C33.0428 30.9341 33.3437 29.4298 32.7419 28.3768L28.8308 20.705C27.477 18.1478 24.6189 16.7939 21.9112 17.3956L9.72656 20.1033" stroke="#181D27" stroke-width="2" stroke-miterlimit="10" stroke-linecap="round" stroke-linejoin="round"/>
    <path d="M7.6188 35.444H3.10598C1.90256 35.444 1 34.5414 1 33.338V19.0474C1 17.844 1.90256 16.9414 3.10598 16.9414H7.6188C8.82222 16.9414 9.72479 17.844 9.72479 19.0474V33.338C9.72479 34.5414 8.82222 35.444 7.6188 35.444Z" stroke="#181D27" stroke-width="2" stroke-miterlimit="10" stroke-linecap="round" stroke-linejoin="round"/>
    <path d="M61.3233 32.285L48.0857 39.5055C47.0327 40.1072 45.6789 39.9568 44.7763 39.2047L42.6704 37.3996C41.4669 36.3466 41.4669 34.391 42.5199 33.338L47.0327 28.8252" stroke="#181D27" stroke-width="2" stroke-miterlimit="10" stroke-linecap="round" stroke-linejoin="round"/>
    <path d="M41.9169 34.0931L39.0588 31.6862C38.1562 30.9341 37.8554 29.4298 38.4571 28.3768L42.3682 20.705C43.722 18.1478 46.5802 16.7939 49.2879 17.3956L61.4725 20.1033" stroke="#181D27" stroke-width="2" stroke-miterlimit="10" stroke-linecap="round" stroke-linejoin="round"/>
    <path d="M63.5786 35.444H68.0915C69.2949 35.444 70.1974 34.5414 70.1974 33.338V19.0474C70.1974 17.844 69.2949 16.9414 68.0915 16.9414H63.5786C62.3752 16.9414 61.4727 17.844 61.4727 19.0474V33.338C61.4727 34.5414 62.3752 35.444 63.5786 35.444Z" stroke="#181D27" stroke-width="2" stroke-miterlimit="10" stroke-linecap="round" stroke-linejoin="round"/>
    <path d="M35.6035 6.11453V1" stroke="#181D27" stroke-width="2" stroke-miterlimit="10" stroke-linecap="round" stroke-linejoin="round"/>
    <path d="M29.2874 9.72488L25.978 4.61035" stroke="#181D27" stroke-width="2" stroke-miterlimit="10" stroke-linecap="round" stroke-linejoin="round"/>
    <path d="M41.9204 9.72488L45.2298 4.61035" stroke="#181D27" stroke-width="2" stroke-miterlimit="10" stroke-linecap="round" stroke-linejoin="round"/>
    <path d="M35.605 48.5352V53.6497" stroke="#181D27" stroke-width="2" stroke-miterlimit="10" stroke-linecap="round" stroke-linejoin="round"/>
    <path d="M41.9219 44.9229L45.2313 50.0374" stroke="#181D27" stroke-width="2" stroke-miterlimit="10" stroke-linecap="round" stroke-linejoin="round"/>
    <path d="M29.2884 44.9229L25.979 50.0374" stroke="#181D27" stroke-width="2" stroke-miterlimit="10" stroke-linecap="round" stroke-linejoin="round"/>
    </svg>
    