<svg width="22" height="30" viewBox="0 0 22 30" fill="none" xmlns="http://www.w3.org/2000/svg">
    <path d="M1.37769 29.3762L12.5576 15.734L15.7686 19.6526L1.81323 29.3206C1.72681 29.3811 1.63477 29.4083 1.54541 29.4083C1.48804 29.4083 1.43115 29.3971 1.37769 29.3762ZM1 28.7572V2.01442C1 1.90098 1.02393 1.79806 1.06421 1.70866L12.2725 15.3854L1.06421 29.063C1.02393 28.9736 1 28.8706 1 28.7572ZM12.8425 15.3854L16.1326 11.3714L21.114 14.822C21.4753 15.0729 21.4753 15.6987 21.114 15.9489L16.1326 19.4002L12.8425 15.3854ZM1.37769 1.39538C1.51489 1.34204 1.6709 1.35181 1.81323 1.45022L15.7686 11.119L12.5576 15.0376L1.37769 1.39538Z" fill="white" stroke="#054465"/>
    </svg>
    